<svg width="177" height="87" viewBox="0 0 177 87" fill="none" xmlns="http://www.w3.org/2000/svg">
<path d="M165.515 2.76254C162.888 1.48613 159.938 0.770203 156.82 0.770203C153.703 0.770203 150.753 1.48613 148.126 2.76254H165.515Z" fill="url(#paint0_linear_5130_718)"></path>
<path d="M146.006 3.95794C146.217 3.8212 146.431 3.68834 146.647 3.55947H166.993C168.15 4.24774 169.231 5.04983 170.221 5.95028H143.42C143.568 5.81523 143.719 5.68239 143.871 5.55181H123.948C124.044 5.46917 124.142 5.38743 124.24 5.30661H104.615C104.96 5.02954 105.314 4.76371 105.678 4.50968H125.274C125.539 4.31937 125.808 4.13538 126.082 3.95794H146.006Z" fill="url(#paint1_linear_5130_718)"></path>
<path d="M173.052 9.13802C172.447 8.28917 171.776 7.48982 171.048 6.74721H142.592C142.464 6.87828 142.337 7.01112 142.212 7.14568H122.289C122.121 7.3265 121.957 7.51045 121.796 7.69742H102.116C101.888 7.95716 101.666 8.22289 101.451 8.49435H121.144C121.081 8.57558 121.019 8.65732 120.957 8.73955H140.88C140.781 8.87112 140.684 9.00395 140.589 9.13802H173.052Z" fill="url(#paint2_linear_5130_718)"></path>
<path d="M139.799 10.3334C139.881 10.1995 139.964 10.0667 140.049 9.93495H173.592C174.082 10.6978 174.522 11.4963 174.907 12.3258H138.734C138.796 12.1921 138.859 12.0593 138.924 11.9273H119.001C119.041 11.8452 119.082 11.7635 119.123 11.6821H99.389C99.5288 11.4128 99.6745 11.1471 99.826 10.8852H119.551C119.657 10.6994 119.765 10.5154 119.876 10.3334H139.799Z" fill="url(#paint3_linear_5130_718)"></path>
<path d="M176.064 15.5135C175.844 14.6945 175.573 13.8964 175.255 13.1227H138.386C138.332 13.2548 138.279 13.3876 138.227 13.5212H118.304C118.233 13.7038 118.165 13.8877 118.1 14.0729H98.3418C98.2467 14.336 98.157 14.6017 98.0727 14.8698H117.838C117.813 14.9513 117.789 15.0331 117.765 15.115H137.688C137.65 15.2473 137.613 15.3801 137.577 15.5135H176.064Z" fill="url(#paint4_linear_5130_718)"></path>
<path d="M137.295 16.7089C137.323 16.5756 137.351 16.4428 137.381 16.3104H176.26C176.435 17.091 176.565 17.889 176.645 18.7012H136.995C137.009 18.568 137.023 18.4352 137.039 18.3028H117.116C117.125 18.2209 117.136 18.1391 117.146 18.0576H97.3543C97.3918 17.7902 97.4346 17.5245 97.4825 17.2606H117.268C117.3 17.0758 117.335 16.8919 117.372 16.7089H137.295Z" fill="url(#paint5_linear_5130_718)"></path>
<path d="M176.744 20.6936C176.744 21.0949 176.732 21.4935 176.708 21.889H136.932C136.924 21.7565 136.918 21.6237 136.913 21.4905H116.989C116.986 21.4089 116.983 21.3272 116.981 21.2453H97.1645C97.162 21.1128 97.1606 20.98 97.1606 20.8468C97.1606 20.7137 97.162 20.5809 97.1645 20.4484H116.975C116.977 20.2638 116.982 20.0799 116.989 19.8966H136.913C136.918 19.7635 136.924 19.6306 136.932 19.4982H176.708C176.732 19.8936 176.744 20.2922 176.744 20.6936Z" fill="url(#paint6_linear_5130_718)"></path>
<path d="M176.645 22.6859C176.565 23.4982 176.435 24.2961 176.26 25.0767H137.381C137.351 24.9444 137.323 24.8116 137.295 24.6782H117.372C117.356 24.5967 117.34 24.515 117.324 24.433H97.4825C97.4346 24.1692 97.3918 23.9035 97.3543 23.6361H117.189C117.162 23.453 117.138 23.2691 117.116 23.0844H137.039C137.023 22.9519 137.009 22.8191 136.995 22.6859H176.645Z" fill="url(#paint7_linear_5130_718)"></path>
<path d="M138.227 27.866C138.279 27.9995 138.332 28.1323 138.386 28.2644H175.255C175.573 27.4907 175.844 26.6926 176.064 25.8736H137.577C137.613 26.007 137.65 26.1399 137.688 26.2721H117.765C117.819 26.4572 117.875 26.6411 117.935 26.8238H98.0727C98.157 27.092 98.2467 27.3577 98.3418 27.6208H118.211C118.241 27.7028 118.272 27.7845 118.304 27.866H138.227Z" fill="url(#paint8_linear_5130_718)"></path>
<path d="M174.907 29.0614C174.522 29.8908 174.082 30.6893 173.592 31.4522H140.049C139.964 31.3204 139.881 31.1876 139.799 31.0537H119.876C119.826 30.9724 119.777 30.8906 119.729 30.8085H99.826C99.6745 30.5466 99.5288 30.2809 99.389 30.0116H119.282C119.186 29.8293 119.092 29.6454 119.001 29.4599H138.924C138.859 29.3278 138.796 29.195 138.734 29.0614H174.907Z" fill="url(#paint9_linear_5130_718)"></path>
<path d="M142.212 34.2415C142.337 34.376 142.464 34.5089 142.592 34.6399H171.048C171.776 33.8973 172.447 33.098 173.052 32.2491H140.589C140.684 32.3832 140.781 32.516 140.88 32.6476H120.957C121.097 32.8341 121.24 33.018 121.387 33.1993H101.451C101.666 33.4708 101.888 33.7365 102.116 33.9963H122.065C122.139 34.0786 122.214 34.1603 122.289 34.2415H142.212Z" fill="url(#paint10_linear_5130_718)"></path>
<path d="M170.221 35.4369C169.231 36.3373 168.15 37.1394 166.993 37.8277H146.647C146.431 37.6988 146.217 37.5659 146.006 37.4292H126.082C125.958 37.3488 125.835 37.2671 125.713 37.184H105.678C105.314 36.93 104.96 36.6641 104.615 36.3871H124.621C124.393 36.208 124.168 36.024 123.948 35.8353H143.871C143.719 35.7048 143.568 35.5719 143.42 35.4369H170.221Z" fill="url(#paint11_linear_5130_718)"></path>
<path d="M148.126 38.6246C150.753 39.901 153.703 40.6169 156.82 40.6169C159.938 40.6169 162.888 39.901 165.515 38.6246H148.126Z" fill="url(#paint12_linear_5130_718)"></path>
<path d="M123.897 2.11887C121.772 1.34538 119.477 0.923471 117.084 0.923471C114.691 0.923471 112.396 1.34538 110.271 2.11887H123.897Z" fill="url(#paint13_linear_5130_718)"></path>
<path d="M110.271 39.5748C112.396 40.3483 114.691 40.7702 117.084 40.7702C119.477 40.7702 121.772 40.3483 123.897 39.5748H110.271Z" fill="url(#paint14_linear_5130_718)"></path>
<path d="M136.897 0.770203C139.673 0.770203 142.317 1.3381 144.718 2.36407H129.076C131.477 1.3381 134.121 0.770203 136.897 0.770203Z" fill="url(#paint15_linear_5130_718)"></path>
<path d="M136.897 40.6169C134.121 40.6169 131.477 40.049 129.076 39.0231H144.718C142.317 40.049 139.673 40.6169 136.897 40.6169Z" fill="url(#paint16_linear_5130_718)"></path>
<path d="M171.132 86.4038V79.3158H172.173V86.4038H171.132ZM175.149 86.4038L171.788 82.9275V82.813L175.191 79.3158H176.492L172.735 83.1773L172.839 82.5632L176.555 86.4038H175.149Z" fill="#7D919C"></path>
<path d="M164.677 86.4038V79.3158H167.28C167.765 79.3158 168.189 79.4199 168.549 79.628C168.917 79.8293 169.202 80.1033 169.403 80.4503C169.604 80.7972 169.705 81.1858 169.705 81.616C169.705 82.0462 169.604 82.4348 169.403 82.7817C169.202 83.1287 168.917 83.4028 168.549 83.604C168.189 83.8052 167.765 83.9058 167.28 83.9058H165.531V82.9275H167.103C167.561 82.9275 167.928 82.813 168.206 82.584C168.483 82.3481 168.622 82.0254 168.622 81.616C168.622 81.1789 168.483 80.8493 168.206 80.6272C167.928 80.4052 167.561 80.2942 167.103 80.2942H165.521L165.718 80.0548V86.4038H164.677ZM168.633 86.4038L166.978 83.4583H168.123L169.778 86.4038H168.633Z" fill="#7D919C"></path>
<path d="M156.146 82.865C156.146 82.3377 156.237 81.8519 156.417 81.4078C156.604 80.9638 156.865 80.5787 157.198 80.2525C157.531 79.9264 157.919 79.6731 158.363 79.4927C158.814 79.3123 159.304 79.2221 159.831 79.2221C160.351 79.2221 160.834 79.3123 161.278 79.4927C161.722 79.6731 162.107 79.9264 162.433 80.2525C162.766 80.5787 163.023 80.9638 163.203 81.4078C163.391 81.8519 163.484 82.3377 163.484 82.865C163.484 83.3854 163.391 83.8677 163.203 84.3118C163.023 84.7559 162.766 85.1444 162.433 85.4775C162.107 85.8036 161.722 86.0569 161.278 86.2373C160.834 86.4177 160.351 86.5079 159.831 86.5079C159.304 86.5079 158.814 86.4177 158.363 86.2373C157.919 86.0569 157.531 85.8036 157.198 85.4775C156.865 85.1444 156.604 84.7559 156.417 84.3118C156.237 83.8677 156.146 83.3854 156.146 82.865ZM157.208 82.865C157.208 83.3715 157.322 83.826 157.551 84.2285C157.78 84.624 158.093 84.9363 158.488 85.1652C158.884 85.3942 159.331 85.5087 159.831 85.5087C160.33 85.5087 160.775 85.3942 161.163 85.1652C161.552 84.9363 161.857 84.624 162.079 84.2285C162.308 83.826 162.423 83.3715 162.423 82.865C162.423 82.3515 162.308 81.897 162.079 81.5015C161.857 81.106 161.552 80.7938 161.163 80.5648C160.775 80.3358 160.33 80.2213 159.831 80.2213C159.331 80.2213 158.884 80.3358 158.488 80.5648C158.093 80.7938 157.78 81.106 157.551 81.5015C157.322 81.897 157.208 82.3515 157.208 82.865Z" fill="#7D919C"></path>
<path d="M152.688 86.4038L150.741 80.086L150.502 79.3158H151.522L153.51 85.8834L153.052 85.7793L154.78 79.3158H155.831L153.906 86.4038H152.688ZM148.119 86.4038L146.193 79.3158H147.244L148.972 85.7793L148.514 85.8834L150.502 79.3158H151.522L151.283 80.086L149.336 86.4038H148.119Z" fill="#7D919C"></path>
<path d="M142.522 86.4038V80.0964H143.563V86.4038H142.522ZM140.305 80.2942V79.3158H145.884V80.2942H140.305Z" fill="#7D919C"></path>
<path d="M136.155 83.3334V82.355H139.018V83.3334H136.155ZM136.124 80.2942L136.364 79.9611V85.5816L136.072 85.415H139.632V86.4038H135.323V79.3158H139.632V80.2942H136.124Z" fill="#7D919C"></path>
<path d="M132.666 86.4038L128.086 80.4607L128.669 80.2942V86.4038H127.628V79.3158H128.513L132.937 85.0508H132.51V79.3158H133.551V86.4038H132.666Z" fill="#7D919C"></path>
<path d="M80.5706 52.7971V71.9516H86.2895V52.7971H80.5706Z" fill="#283841"></path>
<path d="M80.9623 44.297C80.3617 44.9237 80.0613 45.7463 80.0613 46.7647C80.0613 47.7571 80.3617 48.5666 80.9623 49.1933C81.589 49.7939 82.4116 50.0942 83.43 50.0942C84.4485 50.0942 85.258 49.7939 85.8586 49.1933C86.4854 48.5666 86.7987 47.7571 86.7987 46.7647C86.7987 45.7463 86.4854 44.9237 85.8586 44.297C85.258 43.6702 84.4485 43.3569 83.43 43.3569C82.4116 43.3569 81.589 43.6702 80.9623 44.297Z" fill="#283841"></path>
<path d="M112.976 71.6382C114.334 72.2388 115.783 72.5391 117.324 72.5391C118.786 72.5391 120.092 72.278 121.241 71.7557C122.39 71.2335 123.291 70.5023 123.944 69.5622C124.597 68.5959 124.923 67.4861 124.923 66.2326C124.923 64.6136 124.401 63.321 123.356 62.3547C122.338 61.3885 120.641 60.6181 118.264 60.0436C116.854 59.7042 115.914 59.4039 115.444 59.1428C114.974 58.8815 114.739 58.5551 114.739 58.1634C114.739 57.7457 114.935 57.4323 115.326 57.2233C115.718 57.0145 116.188 56.91 116.737 56.91C117.755 56.91 118.669 57.0928 119.479 57.4583C120.288 57.8239 120.98 58.2679 121.555 58.7902L125.08 55.774C124.244 54.7817 123.187 53.9461 121.907 53.2672C120.628 52.562 119.074 52.2095 117.246 52.2095C115.705 52.2095 114.373 52.4967 113.25 53.0712C112.127 53.6457 111.266 54.4161 110.665 55.3823C110.064 56.3224 109.764 57.367 109.764 58.5159C109.764 60.1089 110.247 61.3885 111.213 62.3547C112.206 63.2949 113.707 64.013 115.718 64.5091C116.815 64.7963 117.651 65.0445 118.225 65.2534C118.8 65.4622 119.191 65.6712 119.4 65.8801C119.609 66.0891 119.714 66.3502 119.714 66.6635C119.714 67.0291 119.531 67.3425 119.165 67.6036C118.826 67.8387 118.369 67.9561 117.794 67.9561C116.828 67.9561 115.94 67.7603 115.131 67.3686C114.321 66.9769 113.472 66.324 112.584 65.4101L109.333 68.5438C110.43 70.006 111.644 71.0375 112.976 71.6382Z" fill="#283841"></path>
<path d="M147.171 71.9516V52.7971H151.402L152.078 54.9844C152.273 54.8167 152.474 54.653 152.681 54.4935C152.737 54.4499 152.794 54.4067 152.851 54.3638C153.687 53.7371 154.601 53.241 155.593 52.8754C156.585 52.5098 157.617 52.327 158.688 52.327C159.967 52.327 160.986 52.549 161.743 52.9929C162.526 53.4107 163.114 53.9982 163.506 54.7556C163.564 54.8621 163.62 54.9708 163.673 55.0815C163.959 54.8334 164.256 54.5943 164.563 54.3638C165.399 53.7371 166.3 53.241 167.266 52.8754C168.258 52.5098 169.29 52.327 170.36 52.327C171.64 52.327 172.672 52.549 173.455 52.9929C174.238 53.4107 174.826 53.9982 175.218 54.7556C175.609 55.5129 175.884 56.3747 176.04 57.3409C176.197 58.2809 176.275 59.2602 176.275 60.2786V71.9516H170.517V60.592C170.517 59.4953 170.321 58.7772 169.93 58.4377C169.564 58.0721 169.094 57.8892 168.519 57.8892C167.684 57.8892 166.874 58.1373 166.091 58.6335C165.541 58.9632 165.031 59.3635 164.558 59.8344C164.562 59.9816 164.563 60.1297 164.563 60.2786V71.9516H158.844V60.592C158.844 59.4953 158.648 58.7772 158.257 58.4377C157.865 58.0721 157.382 57.8892 156.807 57.8892C155.998 57.8892 155.201 58.1373 154.418 58.6335C153.87 58.962 153.361 59.3607 152.89 59.8294V71.9516H147.171Z" fill="#283841"></path>
<path d="M133.12 72.4216C131.71 72.4216 130.561 72.2127 129.673 71.7949C128.812 71.377 128.133 70.8026 127.636 70.0714C127.166 69.314 126.84 68.4654 126.657 67.5252C126.5 66.559 126.422 65.5406 126.422 64.4699V52.7971H132.141V64.1566C132.141 65.2272 132.363 65.9454 132.807 66.311C133.251 66.6505 133.799 66.8203 134.452 66.8203C135.027 66.8203 135.588 66.7288 136.137 66.546C136.685 66.3371 137.22 66.0499 137.742 65.6843C138.018 65.4775 138.279 65.249 138.526 64.9985V52.7971H144.284V71.9516H140.014L139.341 69.7751C139.105 69.982 138.86 70.1851 138.604 70.3847C137.795 71.0114 136.933 71.5076 136.019 71.8732C135.105 72.2388 134.139 72.4216 133.12 72.4216Z" fill="#283841"></path>
<path fill-rule="evenodd" clip-rule="evenodd" d="M99.8389 72.4216C98.1415 72.4216 96.6661 72.0429 95.4126 71.2857C95.265 71.1915 95.1214 71.0921 94.9818 70.9877V79.394H89.2628V52.7971H93.5324L94.097 54.7045C94.5163 54.2584 94.9809 53.8707 95.491 53.5413C96.7444 52.7318 98.2068 52.327 99.8781 52.327C101.628 52.327 103.155 52.7579 104.461 53.6196C105.793 54.4553 106.824 55.6304 107.556 57.145C108.313 58.6596 108.692 60.4092 108.692 62.3939C108.692 64.3525 108.313 66.0891 107.556 67.6036C106.798 69.1182 105.754 70.3063 104.422 71.1682C103.09 72.0038 101.562 72.4216 99.8389 72.4216ZM98.7813 67.0552C99.9565 67.0552 100.923 66.6243 101.68 65.7626C102.463 64.8747 102.855 63.7518 102.855 62.3939C102.855 61.0098 102.463 59.8869 101.68 59.0252C100.923 58.1373 99.9565 57.6934 98.7813 57.6934C97.6323 57.6934 96.6661 58.1373 95.8827 59.0252C95.0993 59.8869 94.7076 60.9968 94.7076 62.3547C94.7076 63.7387 95.0993 64.8747 95.8827 65.7626C96.6661 66.6243 97.6323 67.0552 98.7813 67.0552Z" fill="#283841"></path>
<path fill-rule="evenodd" clip-rule="evenodd" d="M68.603 72.4216C66.6183 72.4216 64.8687 72.0038 63.3541 71.1682C61.8395 70.3063 60.6643 69.1182 59.8287 67.6036C58.993 66.0891 58.5752 64.3525 58.5752 62.3939C58.5752 60.4092 58.993 58.6596 59.8287 57.145C60.6643 55.6304 61.8395 54.4553 63.3541 53.6196C64.8687 52.7579 66.6183 52.327 68.603 52.327C70.6137 52.327 72.3764 52.7579 73.891 53.6196C75.4056 54.4553 76.5807 55.6304 77.4164 57.145C78.2781 58.6596 78.709 60.4092 78.709 62.3939C78.709 64.3525 78.2781 66.0891 77.4164 67.6036C76.5807 69.1182 75.4056 70.3063 73.891 71.1682C72.3764 72.0038 70.6137 72.4216 68.603 72.4216ZM68.603 66.8593C69.8825 66.8593 70.914 66.4547 71.6974 65.6451C72.507 64.8094 72.9117 63.7256 72.9117 62.3939C72.9117 61.0359 72.507 59.9391 71.6974 59.1036C70.914 58.2679 69.8825 57.85 68.603 57.85C67.3756 57.85 66.3572 58.2679 65.5476 59.1036C64.7642 59.913 64.3725 60.9968 64.3725 62.3547C64.3725 63.7126 64.7642 64.8094 65.5476 65.6451C66.3572 66.4547 67.3756 66.8593 68.603 66.8593Z" fill="#283841"></path>
<path fill-rule="evenodd" clip-rule="evenodd" d="M43.9514 79.3157C45.022 79.6291 46.0666 79.7857 47.085 79.7857C49.148 79.7857 50.9107 79.3809 52.3731 78.5715C53.8616 77.7619 54.9975 76.5606 55.7809 74.9677C56.5644 73.3748 56.9561 71.4554 56.9561 69.2097V52.7971H52.6865L52.0548 54.8968C51.5859 54.3574 51.0522 53.8925 50.4537 53.5021C49.2525 52.7187 47.8554 52.327 46.2625 52.327C44.565 52.327 43.0504 52.7318 41.7186 53.5413C40.3868 54.3246 39.3423 55.4214 38.585 56.8316C37.8538 58.2156 37.4882 59.8217 37.4882 61.6496C37.4882 63.4515 37.8668 65.0576 38.6241 66.4677C39.4075 67.8777 40.4521 68.9745 41.7578 69.758C43.0896 70.5414 44.6172 70.9332 46.3408 70.9332C47.9598 70.9332 49.3569 70.5676 50.532 69.8364C50.6559 69.7582 50.7769 69.6768 50.8949 69.5921C50.9401 69.5596 50.9849 69.5267 51.0292 69.4932C51.0996 69.4402 51.1689 69.3859 51.2371 69.3304V70.4239C51.2371 71.9647 50.8585 73.1136 50.1012 73.8709C49.3439 74.6544 48.3646 75.0461 47.1634 75.0461C46.1188 75.0461 45.257 74.824 44.5781 74.3802C43.9252 73.9362 43.2724 73.205 42.6195 72.1866L38.5066 74.3018L38.82 74.9677C39.4206 76.1429 40.1649 77.0829 41.0527 77.788C41.9406 78.5192 42.9068 79.0284 43.9514 79.3157ZM50.3754 64.705C49.6181 65.5145 48.6388 65.9193 47.4376 65.9193C46.2363 65.9193 45.244 65.5145 44.4606 64.705C43.7033 63.8954 43.3246 62.877 43.3246 61.6496C43.3246 60.3701 43.7033 59.3255 44.4606 58.5159C45.244 57.7065 46.2363 57.3017 47.4376 57.3017C48.6388 57.3017 49.6181 57.7065 50.3754 58.5159C51.1588 59.3255 51.5505 60.3701 51.5505 61.6496C51.5505 62.877 51.1588 63.8954 50.3754 64.705Z" fill="#283841"></path>
<path fill-rule="evenodd" clip-rule="evenodd" d="M26.9626 72.4216C24.9779 72.4216 23.2283 72.0038 21.7137 71.1682C20.1991 70.3063 19.0239 69.1182 18.1883 67.6036C17.3526 66.0891 16.9348 64.3525 16.9348 62.3939C16.9348 60.4092 17.3526 58.6596 18.1883 57.145C19.0239 55.6304 20.1991 54.4553 21.7137 53.6196C23.2283 52.7579 24.9779 52.327 26.9626 52.327C28.9733 52.327 30.736 52.7579 32.2506 53.6196C33.7652 54.4553 34.9403 55.6304 35.776 57.145C36.6378 58.6596 37.0686 60.4092 37.0686 62.3939C37.0686 64.3525 36.6378 66.0891 35.776 67.6036C34.9403 69.1182 33.7652 70.3063 32.2506 71.1682C30.736 72.0038 28.9733 72.4216 26.9626 72.4216ZM26.9626 66.8593C28.2421 66.8593 29.2736 66.4547 30.057 65.6451C30.8666 64.8094 31.2713 63.7256 31.2713 62.3939C31.2713 61.0359 30.8666 59.9391 30.057 59.1036C29.2736 58.2679 28.2421 57.85 26.9626 57.85C25.7352 57.85 24.7168 58.2679 23.9072 59.1036C23.1238 59.913 22.7321 60.9968 22.7321 62.3547C22.7321 63.7126 23.1238 64.8094 23.9072 65.6451C24.7168 66.4547 25.7352 66.8593 26.9626 66.8593Z" fill="#283841"></path>
<path d="M0.355469 71.9516H16.5722V66.4285H6.0744V45.2762H0.355469V71.9516Z" fill="#283841"></path>
<defs>
<linearGradient id="paint0_linear_5130_718" x1="97.1606" y1="18.3432" x2="174.641" y2="18.3432" gradientUnits="userSpaceOnUse">
<stop stop-color="#0046F9"></stop>
<stop offset="0.197917" stop-color="#16DBF6"></stop>
<stop offset="0.401042" stop-color="#FFE713"></stop>
<stop offset="0.604167" stop-color="#FF7917"></stop>
<stop offset="0.802083" stop-color="#FB0000"></stop>
<stop offset="1" stop-color="#B30000"></stop>
</linearGradient>
<linearGradient id="paint1_linear_5130_718" x1="97.1606" y1="18.3432" x2="174.641" y2="18.3432" gradientUnits="userSpaceOnUse">
<stop stop-color="#0046F9"></stop>
<stop offset="0.197917" stop-color="#16DBF6"></stop>
<stop offset="0.401042" stop-color="#FFE713"></stop>
<stop offset="0.604167" stop-color="#FF7917"></stop>
<stop offset="0.802083" stop-color="#FB0000"></stop>
<stop offset="1" stop-color="#B30000"></stop>
</linearGradient>
<linearGradient id="paint2_linear_5130_718" x1="97.1606" y1="18.3432" x2="174.641" y2="18.3432" gradientUnits="userSpaceOnUse">
<stop stop-color="#0046F9"></stop>
<stop offset="0.197917" stop-color="#16DBF6"></stop>
<stop offset="0.401042" stop-color="#FFE713"></stop>
<stop offset="0.604167" stop-color="#FF7917"></stop>
<stop offset="0.802083" stop-color="#FB0000"></stop>
<stop offset="1" stop-color="#B30000"></stop>
</linearGradient>
<linearGradient id="paint3_linear_5130_718" x1="97.1606" y1="18.3432" x2="174.641" y2="18.3432" gradientUnits="userSpaceOnUse">
<stop stop-color="#0046F9"></stop>
<stop offset="0.197917" stop-color="#16DBF6"></stop>
<stop offset="0.401042" stop-color="#FFE713"></stop>
<stop offset="0.604167" stop-color="#FF7917"></stop>
<stop offset="0.802083" stop-color="#FB0000"></stop>
<stop offset="1" stop-color="#B30000"></stop>
</linearGradient>
<linearGradient id="paint4_linear_5130_718" x1="97.1606" y1="18.3432" x2="174.641" y2="18.3432" gradientUnits="userSpaceOnUse">
<stop stop-color="#0046F9"></stop>
<stop offset="0.197917" stop-color="#16DBF6"></stop>
<stop offset="0.401042" stop-color="#FFE713"></stop>
<stop offset="0.604167" stop-color="#FF7917"></stop>
<stop offset="0.802083" stop-color="#FB0000"></stop>
<stop offset="1" stop-color="#B30000"></stop>
</linearGradient>
<linearGradient id="paint5_linear_5130_718" x1="97.1606" y1="18.3432" x2="174.641" y2="18.3432" gradientUnits="userSpaceOnUse">
<stop stop-color="#0046F9"></stop>
<stop offset="0.197917" stop-color="#16DBF6"></stop>
<stop offset="0.401042" stop-color="#FFE713"></stop>
<stop offset="0.604167" stop-color="#FF7917"></stop>
<stop offset="0.802083" stop-color="#FB0000"></stop>
<stop offset="1" stop-color="#B30000"></stop>
</linearGradient>
<linearGradient id="paint6_linear_5130_718" x1="97.1606" y1="18.3432" x2="174.641" y2="18.3432" gradientUnits="userSpaceOnUse">
<stop stop-color="#0046F9"></stop>
<stop offset="0.197917" stop-color="#16DBF6"></stop>
<stop offset="0.401042" stop-color="#FFE713"></stop>
<stop offset="0.604167" stop-color="#FF7917"></stop>
<stop offset="0.802083" stop-color="#FB0000"></stop>
<stop offset="1" stop-color="#B30000"></stop>
</linearGradient>
<linearGradient id="paint7_linear_5130_718" x1="97.1606" y1="18.3432" x2="174.641" y2="18.3432" gradientUnits="userSpaceOnUse">
<stop stop-color="#0046F9"></stop>
<stop offset="0.197917" stop-color="#16DBF6"></stop>
<stop offset="0.401042" stop-color="#FFE713"></stop>
<stop offset="0.604167" stop-color="#FF7917"></stop>
<stop offset="0.802083" stop-color="#FB0000"></stop>
<stop offset="1" stop-color="#B30000"></stop>
</linearGradient>
<linearGradient id="paint8_linear_5130_718" x1="97.1606" y1="18.3432" x2="174.641" y2="18.3432" gradientUnits="userSpaceOnUse">
<stop stop-color="#0046F9"></stop>
<stop offset="0.197917" stop-color="#16DBF6"></stop>
<stop offset="0.401042" stop-color="#FFE713"></stop>
<stop offset="0.604167" stop-color="#FF7917"></stop>
<stop offset="0.802083" stop-color="#FB0000"></stop>
<stop offset="1" stop-color="#B30000"></stop>
</linearGradient>
<linearGradient id="paint9_linear_5130_718" x1="97.1606" y1="18.3432" x2="174.641" y2="18.3432" gradientUnits="userSpaceOnUse">
<stop stop-color="#0046F9"></stop>
<stop offset="0.197917" stop-color="#16DBF6"></stop>
<stop offset="0.401042" stop-color="#FFE713"></stop>
<stop offset="0.604167" stop-color="#FF7917"></stop>
<stop offset="0.802083" stop-color="#FB0000"></stop>
<stop offset="1" stop-color="#B30000"></stop>
</linearGradient>
<linearGradient id="paint10_linear_5130_718" x1="97.1606" y1="18.3432" x2="174.641" y2="18.3432" gradientUnits="userSpaceOnUse">
<stop stop-color="#0046F9"></stop>
<stop offset="0.197917" stop-color="#16DBF6"></stop>
<stop offset="0.401042" stop-color="#FFE713"></stop>
<stop offset="0.604167" stop-color="#FF7917"></stop>
<stop offset="0.802083" stop-color="#FB0000"></stop>
<stop offset="1" stop-color="#B30000"></stop>
</linearGradient>
<linearGradient id="paint11_linear_5130_718" x1="97.1606" y1="18.3432" x2="174.641" y2="18.3432" gradientUnits="userSpaceOnUse">
<stop stop-color="#0046F9"></stop>
<stop offset="0.197917" stop-color="#16DBF6"></stop>
<stop offset="0.401042" stop-color="#FFE713"></stop>
<stop offset="0.604167" stop-color="#FF7917"></stop>
<stop offset="0.802083" stop-color="#FB0000"></stop>
<stop offset="1" stop-color="#B30000"></stop>
</linearGradient>
<linearGradient id="paint12_linear_5130_718" x1="97.1606" y1="18.3432" x2="174.641" y2="18.3432" gradientUnits="userSpaceOnUse">
<stop stop-color="#0046F9"></stop>
<stop offset="0.197917" stop-color="#16DBF6"></stop>
<stop offset="0.401042" stop-color="#FFE713"></stop>
<stop offset="0.604167" stop-color="#FF7917"></stop>
<stop offset="0.802083" stop-color="#FB0000"></stop>
<stop offset="1" stop-color="#B30000"></stop>
</linearGradient>
<linearGradient id="paint13_linear_5130_718" x1="97.1606" y1="18.3432" x2="174.641" y2="18.3432" gradientUnits="userSpaceOnUse">
<stop stop-color="#0046F9"></stop>
<stop offset="0.197917" stop-color="#16DBF6"></stop>
<stop offset="0.401042" stop-color="#FFE713"></stop>
<stop offset="0.604167" stop-color="#FF7917"></stop>
<stop offset="0.802083" stop-color="#FB0000"></stop>
<stop offset="1" stop-color="#B30000"></stop>
</linearGradient>
<linearGradient id="paint14_linear_5130_718" x1="97.1606" y1="18.3432" x2="174.641" y2="18.3432" gradientUnits="userSpaceOnUse">
<stop stop-color="#0046F9"></stop>
<stop offset="0.197917" stop-color="#16DBF6"></stop>
<stop offset="0.401042" stop-color="#FFE713"></stop>
<stop offset="0.604167" stop-color="#FF7917"></stop>
<stop offset="0.802083" stop-color="#FB0000"></stop>
<stop offset="1" stop-color="#B30000"></stop>
</linearGradient>
<linearGradient id="paint15_linear_5130_718" x1="97.1606" y1="18.3432" x2="174.641" y2="18.3432" gradientUnits="userSpaceOnUse">
<stop stop-color="#0046F9"></stop>
<stop offset="0.197917" stop-color="#16DBF6"></stop>
<stop offset="0.401042" stop-color="#FFE713"></stop>
<stop offset="0.604167" stop-color="#FF7917"></stop>
<stop offset="0.802083" stop-color="#FB0000"></stop>
<stop offset="1" stop-color="#B30000"></stop>
</linearGradient>
<linearGradient id="paint16_linear_5130_718" x1="97.1606" y1="18.3432" x2="174.641" y2="18.3432" gradientUnits="userSpaceOnUse">
<stop stop-color="#0046F9"></stop>
<stop offset="0.197917" stop-color="#16DBF6"></stop>
<stop offset="0.401042" stop-color="#FFE713"></stop>
<stop offset="0.604167" stop-color="#FF7917"></stop>
<stop offset="0.802083" stop-color="#FB0000"></stop>
<stop offset="1" stop-color="#B30000"></stop>
</linearGradient>
</defs>
</svg>