<svg width="413" height="117" viewBox="0 0 413 117" fill="none" xmlns="http://www.w3.org/2000/svg">
<path d="M357.551 45.1816V44.6216H357.607C358.951 44.6216 360.034 44.211 360.855 43.3896C361.676 42.5683 362.087 41.4856 362.087 40.1416V21.7736C362.087 20.3549 361.788 19.2536 361.191 18.4696C360.631 17.6856 359.418 17.2936 357.551 17.2936V16.7336H363.095C364.626 16.7336 365.802 16.659 366.623 16.5096C367.482 16.3603 368.116 16.1736 368.527 15.9496C368.938 15.6883 369.236 15.4269 369.423 15.1656H369.983L370.039 22.4456C371.01 20.5043 372.484 18.9363 374.463 17.7416C376.442 16.547 378.532 15.9496 380.735 15.9496C382.863 15.9496 384.636 16.547 386.055 17.7416C387.474 18.9363 388.388 20.5416 388.799 22.5576C389.844 20.5416 391.337 18.9363 393.279 17.7416C395.258 16.547 397.385 15.9496 399.663 15.9496C402.164 15.9496 404.161 16.7709 405.655 18.4136C407.186 20.0563 407.951 22.2216 407.951 24.9096V40.1416C407.951 41.4856 408.362 42.5683 409.183 43.3896C410.004 44.211 411.087 44.6216 412.431 44.6216H412.487V45.1816H395.407V44.6216H395.463C396.807 44.6216 397.89 44.211 398.711 43.3896C399.532 42.5683 399.943 41.4856 399.943 40.1416V24.3496C399.943 22.483 399.57 20.9896 398.823 19.8696C398.076 18.7496 397.106 18.1896 395.911 18.1896C394.754 18.1896 393.54 18.7123 392.271 19.7576C391.001 20.7656 389.9 22.091 388.967 23.7336C389.004 23.8083 389.023 23.9016 389.023 24.0136C389.023 24.1256 389.023 24.219 389.023 24.2936V40.1416C389.023 41.4856 389.434 42.5683 390.255 43.3896C391.076 44.211 392.159 44.6216 393.503 44.6216H393.559V45.1816H376.479V44.6216H376.535C377.879 44.6216 378.962 44.211 379.783 43.3896C380.604 42.5683 381.015 41.4856 381.015 40.1416V24.3496C381.015 22.483 380.642 20.9896 379.895 19.8696C379.186 18.7496 378.234 18.1896 377.039 18.1896C375.882 18.1896 374.668 18.6936 373.399 19.7016C372.167 20.6723 371.084 21.9976 370.151 23.6776V40.1416C370.151 41.4856 370.562 42.5683 371.383 43.3896C372.204 44.211 373.287 44.6216 374.631 44.6216H374.687V45.1816H357.551Z" fill="#1D3AA7"></path>
<path d="M345.774 46.7496L345.718 39.5256C344.747 41.4296 343.272 42.979 341.294 44.1736C339.315 45.3683 337.224 45.9656 335.022 45.9656C332.52 45.9656 330.504 45.1443 328.974 43.5016C327.48 41.859 326.734 39.6936 326.734 37.0056V21.7736C326.734 20.3549 326.454 19.2536 325.894 18.4696C325.334 17.6856 324.102 17.2936 322.198 17.2936V16.7336H327.854C329.758 16.7336 331.214 16.5283 332.222 16.1176C333.155 15.7069 333.808 15.2029 334.182 14.6056H334.742V37.5656C334.742 39.4323 335.115 40.9256 335.862 42.0456C336.608 43.1656 337.579 43.7256 338.774 43.7256C339.931 43.7256 341.126 43.2403 342.358 42.2696C343.59 41.2616 344.672 39.9176 345.606 38.2376V21.7736C345.606 20.4296 345.27 19.347 344.598 18.5256C343.926 17.7043 342.768 17.2936 341.126 17.2936V16.7336H346.782C348.686 16.7336 350.142 16.5283 351.15 16.1176C352.12 15.7069 352.792 15.2029 353.166 14.6056H353.726L353.67 40.1416C353.67 41.4856 354.08 42.587 354.902 43.4456C355.723 44.267 356.806 44.6776 358.15 44.6776V45.1816H352.606C351.635 45.1816 350.776 45.2003 350.03 45.2376C349.283 45.3123 348.667 45.387 348.182 45.4616C347.174 45.6856 346.464 46.115 346.054 46.7496H345.774Z" fill="#1D3AA7"></path>
<path d="M311.053 45.9656C310.082 45.9656 309.354 45.9283 308.869 45.8536C308.384 45.779 307.917 45.6856 307.469 45.5736C307.058 45.4616 306.498 45.3683 305.789 45.2936C305.08 45.219 303.997 45.1816 302.541 45.1816L301.197 34.6536H301.925C302.522 38.163 303.642 40.8136 305.285 42.6056C306.928 44.3603 308.72 45.2376 310.661 45.2376C312.565 45.2376 314.002 44.8456 314.973 44.0616C315.981 43.2776 316.485 42.2136 316.485 40.8696C316.485 40.011 316.261 39.2643 315.813 38.6296C315.402 37.9576 314.674 37.2856 313.629 36.6136C312.584 35.9043 311.165 35.0643 309.373 34.0936L307.749 33.1976C305.696 32.0403 304.165 30.6963 303.157 29.1656C302.186 27.5976 301.701 25.9176 301.701 24.1256C301.701 21.587 302.616 19.5896 304.445 18.1336C306.312 16.6776 308.794 15.9496 311.893 15.9496C312.677 15.9496 313.312 15.9869 313.797 16.0616C314.282 16.1363 314.749 16.2296 315.197 16.3416C315.645 16.4536 316.205 16.5469 316.877 16.6216C317.549 16.6963 318.445 16.7336 319.565 16.7336L320.349 25.7496H319.677C319.453 23.995 318.949 22.4456 318.165 21.1016C317.418 19.7203 316.522 18.6563 315.477 17.9096C314.432 17.1256 313.368 16.7336 312.285 16.7336C310.866 16.7336 309.728 17.1069 308.869 17.8536C308.048 18.6003 307.637 19.6456 307.637 20.9896C307.637 21.9976 307.954 22.9309 308.589 23.7896C309.261 24.611 310.53 25.5069 312.397 26.4776L314.077 27.3176C316.69 28.6616 318.594 30.0616 319.789 31.5176C320.984 32.9736 321.581 34.8403 321.581 37.1176C321.581 42.9416 318.072 45.891 311.053 45.9656Z" fill="#1D3AA7"></path>
<path d="M265.153 56.9416V56.3816H265.209C266.553 56.3816 267.636 55.971 268.457 55.1496C269.279 54.3283 269.689 53.2456 269.689 51.9016V21.7736C269.652 20.131 269.297 18.9736 268.625 18.3016C267.953 17.6296 266.796 17.2936 265.153 17.2936V16.7336H270.697C272.9 16.7336 274.412 16.5283 275.233 16.1176C276.055 15.7069 276.652 15.2029 277.025 14.6056H277.585L277.641 21.7736C278.5 20.0936 279.807 18.6936 281.561 17.5736C283.316 16.4536 285.164 15.8936 287.105 15.8936C289.196 15.8936 291.044 16.5283 292.649 17.7976C294.255 19.0669 295.505 20.8029 296.401 23.0056C297.335 25.1709 297.801 27.6723 297.801 30.5096C297.801 33.6456 297.241 36.371 296.121 38.6856C295.001 41.0003 293.415 42.7923 291.361 44.0616C289.345 45.331 286.937 45.9656 284.137 45.9656C282.607 45.9656 281.356 45.7229 280.385 45.2376C279.415 44.7896 278.537 44.0243 277.753 42.9416V51.9016C277.753 53.2456 278.164 54.3283 278.985 55.1496C279.807 55.971 280.889 56.3816 282.233 56.3816H282.289V56.9416H265.153ZM282.961 45.0136C284.977 45.0136 286.508 43.763 287.553 41.2616C288.561 38.723 289.065 35.083 289.065 30.3416C289.065 22.203 287.423 18.1336 284.137 18.1336C282.868 18.1336 281.617 18.6376 280.385 19.6456C279.153 20.6536 278.276 21.8856 277.753 23.3416V36.3896C277.753 39.0776 278.22 41.187 279.153 42.7176C280.087 44.2483 281.356 45.0136 282.961 45.0136Z" fill="#1D3AA7"></path>
<path d="M249.872 45.1816V44.6216H249.928C251.272 44.6216 252.355 44.211 253.176 43.3896C253.998 42.5683 254.408 41.4856 254.408 40.1416V21.7736C254.408 20.3549 254.11 19.2536 253.512 18.4696C252.952 17.6856 251.739 17.2936 249.872 17.2936V16.7336H255.584C257.488 16.7336 258.944 16.5283 259.952 16.1176C260.886 15.7069 261.539 15.2029 261.912 14.6056H262.472V40.1416C262.472 41.4856 262.883 42.5683 263.704 43.3896C264.526 44.211 265.608 44.6216 266.952 44.6216H267.008V45.1816H249.872ZM258.384 11.0776C257.04 11.0776 255.92 10.6483 255.024 9.78962C254.166 8.89362 253.736 7.77362 253.736 6.42962C253.736 5.08561 254.166 3.98428 255.024 3.12562C255.92 2.22962 257.04 1.78162 258.384 1.78162C259.691 1.78162 260.774 2.22962 261.632 3.12562C262.528 4.02161 262.976 5.12295 262.976 6.42962C262.976 7.73628 262.528 8.83762 261.632 9.73362C260.774 10.6296 259.691 11.0776 258.384 11.0776Z" fill="#1D3AA7"></path>
<path d="M233.805 45.9656C230.744 45.9656 228.056 45.3496 225.741 44.1176C223.464 42.8856 221.691 41.1496 220.421 38.9096C219.152 36.6696 218.517 34.019 218.517 30.9576C218.517 27.8963 219.152 25.2456 220.421 23.0056C221.691 20.7656 223.464 19.0296 225.741 17.7976C228.056 16.5656 230.744 15.9496 233.805 15.9496C236.867 15.9496 239.536 16.5656 241.813 17.7976C244.091 19.0296 245.864 20.7656 247.133 23.0056C248.403 25.2456 249.037 27.8963 249.037 30.9576C249.037 34.019 248.403 36.6696 247.133 38.9096C245.864 41.1496 244.091 42.8856 241.813 44.1176C239.536 45.3496 236.867 45.9656 233.805 45.9656ZM233.749 45.2376C235.056 45.2376 236.176 44.5843 237.109 43.2776C238.043 41.971 238.771 40.235 239.293 38.0696C239.816 35.867 240.077 33.4776 240.077 30.9016C240.077 28.1016 239.797 25.6376 239.237 23.5096C238.715 21.3443 237.968 19.6643 236.997 18.4696C236.064 17.2376 235 16.6216 233.805 16.6216C232.536 16.6216 231.416 17.2749 230.445 18.5816C229.512 19.8883 228.784 21.6243 228.261 23.7896C227.739 25.955 227.477 28.3256 227.477 30.9016C227.477 33.7389 227.757 36.2403 228.317 38.4056C228.877 40.5709 229.624 42.2509 230.557 43.4456C231.528 44.6403 232.592 45.2376 233.749 45.2376Z" fill="#1D3AA7"></path>
<path d="M203.496 57.7256C199.539 57.7256 196.328 57.1843 193.864 56.1016C191.437 55.0563 190.224 53.675 190.224 51.9576C190.224 50.651 190.84 49.475 192.072 48.4296C193.341 47.4216 195.059 46.6376 197.224 46.0776C193.715 45.1816 191.96 43.595 191.96 41.3176C191.96 40.0856 192.445 38.947 193.416 37.9016C194.387 36.819 195.749 35.9603 197.504 35.3256C195.637 34.5043 194.181 33.3096 193.136 31.7416C192.128 30.1736 191.624 28.3256 191.624 26.1976C191.624 23.0989 192.688 20.6163 194.816 18.7496C196.981 16.883 199.875 15.9496 203.496 15.9496C205.213 15.9496 206.893 16.2109 208.536 16.7336H218.84L218.28 17.7416H210.664C212.157 18.6003 213.296 19.7576 214.08 21.2136C214.901 22.6323 215.312 24.2936 215.312 26.1976C215.312 29.2963 214.248 31.7976 212.12 33.7016C210.029 35.5683 207.155 36.5016 203.496 36.5016C201.48 36.5016 199.707 36.2029 198.176 35.6056C196.981 36.2403 196.384 36.9869 196.384 37.8456C196.384 38.5923 196.907 39.0963 197.952 39.3576C198.475 39.507 199.221 39.6376 200.192 39.7496C201.163 39.8616 202.339 39.9363 203.72 39.9736L205.68 40.0856C209.973 40.235 213.277 41.0563 215.592 42.5496C217.944 44.0429 219.12 46.0776 219.12 48.6536C219.12 51.5283 217.739 53.7496 214.976 55.3176C212.213 56.923 208.387 57.7256 203.496 57.7256ZM203.44 35.8296C204.597 35.8296 205.549 34.9523 206.296 33.1976C206.968 31.443 207.304 29.1096 207.304 26.1976C207.304 23.2483 206.968 20.9149 206.296 19.1976C205.587 17.5176 204.653 16.6776 203.496 16.6776C202.301 16.6776 201.368 17.5176 200.696 19.1976C200.024 20.9149 199.688 23.2483 199.688 26.1976C199.688 29.1469 200.024 31.4989 200.696 33.2536C201.368 34.971 202.283 35.8296 203.44 35.8296ZM204.112 56.9976C205.829 56.9976 207.416 56.7363 208.872 56.2136C210.328 55.7283 211.485 55.0376 212.344 54.1416C213.24 53.2456 213.688 52.2189 213.688 51.0616C213.688 49.7923 213.035 48.7843 211.728 48.0376C210.347 47.3283 208.237 46.955 205.4 46.9176L203.44 46.8056C202.357 46.7683 201.349 46.6936 200.416 46.5816C199.52 46.507 198.717 46.395 198.008 46.2456C197.224 46.507 196.645 47.0296 196.272 47.8136C195.899 48.5976 195.712 49.5309 195.712 50.6136C195.712 52.555 196.44 54.1043 197.896 55.2616C199.352 56.419 201.424 56.9976 204.112 56.9976Z" fill="#1D3AA7"></path>
<path d="M173.157 45.9656C170.096 45.9656 167.408 45.3496 165.093 44.1176C162.816 42.8856 161.042 41.1496 159.773 38.9096C158.504 36.6696 157.869 34.019 157.869 30.9576C157.869 27.8963 158.504 25.2456 159.773 23.0056C161.042 20.7656 162.816 19.0296 165.093 17.7976C167.408 16.5656 170.096 15.9496 173.157 15.9496C176.218 15.9496 178.888 16.5656 181.165 17.7976C183.442 19.0296 185.216 20.7656 186.485 23.0056C187.754 25.2456 188.389 27.8963 188.389 30.9576C188.389 34.019 187.754 36.6696 186.485 38.9096C185.216 41.1496 183.442 42.8856 181.165 44.1176C178.888 45.3496 176.218 45.9656 173.157 45.9656ZM173.101 45.2376C174.408 45.2376 175.528 44.5843 176.461 43.2776C177.394 41.971 178.122 40.235 178.645 38.0696C179.168 35.867 179.429 33.4776 179.429 30.9016C179.429 28.1016 179.149 25.6376 178.589 23.5096C178.066 21.3443 177.32 19.6643 176.349 18.4696C175.416 17.2376 174.352 16.6216 173.157 16.6216C171.888 16.6216 170.768 17.2749 169.797 18.5816C168.864 19.8883 168.136 21.6243 167.613 23.7896C167.09 25.955 166.829 28.3256 166.829 30.9016C166.829 33.7389 167.109 36.2403 167.669 38.4056C168.229 40.5709 168.976 42.2509 169.909 43.4456C170.88 44.6403 171.944 45.2376 173.101 45.2376Z" fill="#1D3AA7"></path>
<path d="M124.301 45.1816V44.6216H124.357C125.701 44.6216 126.783 44.2669 127.605 43.5576C128.426 42.8483 128.837 41.8216 128.837 40.4776V8.22162C128.837 6.87762 128.426 5.79495 127.605 4.97361C126.783 4.15228 125.701 3.74162 124.357 3.74162H124.301V3.18161H142.165V3.74162H141.941C140.597 3.74162 139.514 4.15228 138.693 4.97361C137.871 5.79495 137.461 6.87762 137.461 8.22162V40.7016C137.461 41.8963 137.741 42.8296 138.301 43.5016C138.898 44.1363 139.925 44.4536 141.381 44.4536H142.557C145.879 44.4536 148.679 43.427 150.957 41.3736C153.234 39.3203 154.671 36.427 155.269 32.6936H155.829L154.149 45.1816H124.301Z" fill="#1D3AA7"></path>
<path d="M356.465 116.726C354.934 116.726 353.46 116.427 352.041 115.83L354.225 109.278C355.158 109.651 356.166 109.968 357.249 110.23C358.369 110.491 359.489 110.622 360.609 110.622C362.028 110.622 363.353 110.323 364.585 109.726C365.854 109.166 366.806 108.102 367.441 106.534L368.057 105.022L356.969 79.3176C356.596 78.4216 356.11 77.7123 355.513 77.1896C354.878 76.6296 354.02 76.331 352.937 76.2936V75.7336H369.121V76.2936C368.113 76.4056 367.329 76.7603 366.769 77.3576C366.246 77.955 365.985 78.7203 365.985 79.6536C365.985 80.475 366.172 81.315 366.545 82.1736L372.201 95.4456L377.857 82.1736C378.23 81.315 378.417 80.475 378.417 79.6536C378.417 78.7203 378.137 77.955 377.577 77.3576C377.054 76.7603 376.27 76.4056 375.225 76.2936V75.7336H382.953V76.2936C382.094 76.4803 381.366 77.0403 380.769 77.9736C380.172 78.8696 379.537 80.1016 378.865 81.6696L367.441 108.214C366.246 110.976 364.697 113.086 362.793 114.542C360.889 115.998 358.78 116.726 356.465 116.726Z" fill="#7F869E"></path>
<path d="M345.742 104.966C343.8 104.966 342.214 104.35 340.982 103.118C339.75 101.886 339.134 100.28 339.134 98.3016V76.7416H334.374V76.0136C336.95 75.827 339.246 75.0056 341.262 73.5496C343.315 72.0936 344.995 70.1336 346.302 67.6696H347.198V75.7336H354.646L354.086 76.7416H347.198V97.0696C347.198 100.056 348.206 101.55 350.222 101.55C350.894 101.55 351.659 101.344 352.518 100.934C353.414 100.523 354.254 99.9816 355.038 99.3096V99.8696C353.806 101.438 352.35 102.688 350.67 103.622C348.99 104.518 347.347 104.966 345.742 104.966Z" fill="#7F869E"></path>
<path d="M318.177 104.182V103.622H318.233C319.577 103.622 320.66 103.211 321.481 102.39C322.302 101.568 322.713 100.486 322.713 99.1416V80.7736C322.713 79.3549 322.414 78.2536 321.817 77.4696C321.257 76.6856 320.044 76.2936 318.177 76.2936V75.7336H323.889C325.793 75.7336 327.249 75.5283 328.257 75.1176C329.19 74.7069 329.844 74.2029 330.217 73.6056H330.777V99.1416C330.777 100.486 331.188 101.568 332.009 102.39C332.83 103.211 333.913 103.622 335.257 103.622H335.313V104.182H318.177ZM326.689 70.0776C325.345 70.0776 324.225 69.6483 323.329 68.7896C322.47 67.8936 322.041 66.7736 322.041 65.4296C322.041 64.0856 322.47 62.9843 323.329 62.1256C324.225 61.2296 325.345 60.7816 326.689 60.7816C327.996 60.7816 329.078 61.2296 329.937 62.1256C330.833 63.0216 331.281 64.1229 331.281 65.4296C331.281 66.7363 330.833 67.8376 329.937 68.7336C329.078 69.6296 327.996 70.0776 326.689 70.0776Z" fill="#7F869E"></path>
<path d="M306.733 104.966C305.762 104.966 305.034 104.928 304.549 104.854C304.063 104.779 303.597 104.686 303.149 104.574C302.738 104.462 302.178 104.368 301.469 104.294C300.759 104.219 299.677 104.182 298.221 104.182L296.877 93.6536H297.605C298.202 97.163 299.322 99.8136 300.965 101.606C302.607 103.36 304.399 104.238 306.341 104.238C308.245 104.238 309.682 103.846 310.653 103.062C311.661 102.278 312.165 101.214 312.165 99.8696C312.165 99.0109 311.941 98.2643 311.493 97.6296C311.082 96.9576 310.354 96.2856 309.309 95.6136C308.263 94.9043 306.845 94.0643 305.053 93.0936L303.429 92.1976C301.375 91.0403 299.845 89.6963 298.837 88.1656C297.866 86.5976 297.381 84.9176 297.381 83.1256C297.381 80.5869 298.295 78.5896 300.125 77.1336C301.991 75.6776 304.474 74.9496 307.573 74.9496C308.357 74.9496 308.991 74.9869 309.477 75.0616C309.962 75.1363 310.429 75.2296 310.877 75.3416C311.325 75.4536 311.885 75.5469 312.557 75.6216C313.229 75.6963 314.125 75.7336 315.245 75.7336L316.029 84.7496H315.357C315.133 82.9949 314.629 81.4456 313.845 80.1016C313.098 78.7203 312.202 77.6563 311.157 76.9096C310.111 76.1256 309.047 75.7336 307.965 75.7336C306.546 75.7336 305.407 76.1069 304.549 76.8536C303.727 77.6003 303.317 78.6456 303.317 79.9896C303.317 80.9976 303.634 81.9309 304.269 82.7896C304.941 83.6109 306.21 84.5069 308.077 85.4776L309.757 86.3176C312.37 87.6616 314.274 89.0616 315.469 90.5176C316.663 91.9736 317.261 93.8403 317.261 96.1176C317.261 101.942 313.751 104.891 306.733 104.966Z" fill="#7F869E"></path>
<path d="M270.27 104.182V103.622H270.326C271.67 103.622 272.752 103.211 273.574 102.39C274.395 101.568 274.806 100.486 274.806 99.1416V80.7736C274.806 79.3549 274.507 78.2536 273.91 77.4696C273.35 76.6856 272.136 76.2936 270.27 76.2936V75.7336H275.814C277.792 75.7336 279.286 75.5469 280.294 75.1736C281.302 74.7629 282.011 74.2403 282.422 73.6056H282.702L282.758 82.7896C283.243 81.6696 283.859 80.4936 284.606 79.2616C285.39 78.0296 286.36 77.0029 287.518 76.1816C288.712 75.3229 290.131 74.8936 291.774 74.8936C292.334 74.8936 292.931 74.9496 293.566 75.0616C294.2 75.1736 294.872 75.3789 295.582 75.6776L293.398 82.2296C292.054 81.4829 290.878 80.9603 289.87 80.6616C288.899 80.3629 288.04 80.2136 287.294 80.2136C286.024 80.2136 285.072 80.6056 284.438 81.3896C283.84 82.1736 283.318 83.1069 282.87 84.1896V99.1416C282.87 100.486 283.28 101.568 284.102 102.39C284.923 103.211 286.006 103.622 287.35 103.622H287.406V104.182H270.27Z" fill="#7F869E"></path>
<path d="M256.341 104.854C253.765 104.854 251.469 104.219 249.453 102.95C247.475 101.68 245.925 99.9256 244.805 97.6856C243.685 95.4083 243.125 92.8136 243.125 89.9016C243.125 86.9149 243.741 84.3016 244.973 82.0616C246.205 79.8216 247.885 78.0856 250.013 76.8536C252.179 75.5843 254.624 74.9496 257.349 74.9496C259.627 74.9496 261.643 75.3976 263.397 76.2936C265.189 77.1896 266.608 78.4589 267.653 80.1016C268.736 81.7069 269.352 83.5736 269.501 85.7016L269.557 86.5416H250.741V86.8216C250.741 90.7789 251.619 93.9523 253.373 96.3416C255.128 98.6936 257.48 99.8696 260.429 99.8696C262.221 99.8696 263.92 99.4403 265.525 98.5816C267.168 97.6856 268.493 96.4909 269.501 94.9976L270.005 95.1656C269.371 97.0696 268.381 98.7496 267.037 100.206C265.693 101.662 264.107 102.8 262.277 103.622C260.448 104.443 258.469 104.854 256.341 104.854ZM250.797 85.7016H262.165C262.165 82.7523 261.68 80.3629 260.709 78.5336C259.776 76.7043 258.451 75.7896 256.733 75.7896C255.091 75.7896 253.728 76.6856 252.645 78.4776C251.563 80.2696 250.947 82.6776 250.797 85.7016Z" fill="#7F869E"></path>
<path d="M229.492 105.078L218.348 79.3176C217.975 78.459 217.471 77.7496 216.836 77.1896C216.239 76.6296 215.399 76.331 214.316 76.2936V75.7336H229.996V76.2936C228.689 76.443 227.831 77.0216 227.42 78.0296C227.047 79.0376 227.177 80.307 227.812 81.8376L233.58 95.3336L239.292 82.1736C239.665 81.315 239.852 80.475 239.852 79.6536C239.852 78.7203 239.572 77.955 239.012 77.3576C238.452 76.7603 237.668 76.4056 236.66 76.2936V75.7336H245.508V76.2936C244.537 76.5176 243.604 77.0776 242.708 77.9736C241.812 78.8696 241.009 80.1016 240.3 81.6696L229.996 105.078H229.492Z" fill="#7F869E"></path>
<path d="M200.435 104.182V103.622H200.491C201.835 103.622 202.918 103.211 203.739 102.39C204.56 101.568 204.971 100.486 204.971 99.1416V80.7736C204.971 79.3549 204.672 78.2536 204.075 77.4696C203.515 76.6856 202.302 76.2936 200.435 76.2936V75.7336H206.147C208.051 75.7336 209.507 75.5283 210.515 75.1176C211.448 74.7069 212.102 74.2029 212.475 73.6056H213.035V99.1416C213.035 100.486 213.446 101.568 214.267 102.39C215.088 103.211 216.171 103.622 217.515 103.622H217.571V104.182H200.435ZM208.947 70.0776C207.603 70.0776 206.483 69.6483 205.587 68.7896C204.728 67.8936 204.299 66.7736 204.299 65.4296C204.299 64.0856 204.728 62.9843 205.587 62.1256C206.483 61.2296 207.603 60.7816 208.947 60.7816C210.254 60.7816 211.336 61.2296 212.195 62.1256C213.091 63.0216 213.539 64.1229 213.539 65.4296C213.539 66.7363 213.091 67.8376 212.195 68.7336C211.336 69.6296 210.254 70.0776 208.947 70.0776Z" fill="#7F869E"></path>
<path d="M165.051 104.182V103.622H165.107C166.451 103.622 167.533 103.211 168.355 102.39C169.176 101.568 169.587 100.486 169.587 99.1416V80.7736C169.587 79.3549 169.288 78.2536 168.691 77.4696C168.131 76.6856 166.917 76.2936 165.051 76.2936V75.7336H170.595C172.499 75.7336 173.955 75.5283 174.963 75.1176C175.896 74.7069 176.549 74.2029 176.923 73.6056H177.483L177.539 81.4456C178.509 79.5043 179.984 77.9363 181.963 76.7416C183.941 75.5469 186.032 74.9496 188.235 74.9496C190.736 74.9496 192.733 75.7709 194.227 77.4136C195.757 79.0563 196.523 81.2216 196.523 83.9096V99.1416C196.523 100.486 196.933 101.568 197.755 102.39C198.576 103.211 199.659 103.622 201.003 103.622H201.059V104.182H183.979V103.622H184.035C185.379 103.622 186.461 103.211 187.283 102.39C188.104 101.568 188.515 100.486 188.515 99.1416V83.3496C188.515 81.4829 188.141 79.9896 187.395 78.8696C186.685 77.7496 185.733 77.1896 184.539 77.1896C183.381 77.1896 182.168 77.6936 180.899 78.7016C179.667 79.6723 178.584 80.9976 177.651 82.6776V99.1416C177.651 100.486 178.061 101.568 178.883 102.39C179.704 103.211 180.787 103.622 182.131 103.622H182.187V104.182H165.051Z" fill="#7F869E"></path>
<path d="M144.909 104.966C141.623 104.966 138.767 104.331 136.341 103.062C133.914 101.792 132.029 100 130.685 97.6856C129.378 95.3336 128.725 92.5896 128.725 89.4536V67.2216C128.725 65.8776 128.314 64.795 127.493 63.9736C126.671 63.1523 125.589 62.7416 124.245 62.7416H124.021V62.1816H142.053V62.7416H141.885C140.541 62.7416 139.458 63.1523 138.637 63.9736C137.815 64.795 137.405 65.8776 137.405 67.2216V89.4536C137.405 93.411 138.413 96.547 140.429 98.8616C142.482 101.139 145.245 102.278 148.717 102.278C152.226 102.278 154.989 101.12 157.005 98.8056C159.021 96.4536 160.029 93.3363 160.029 89.4536V68.0616C160.029 66.4563 159.543 65.187 158.573 64.2536C157.602 63.3203 156.314 62.8163 154.709 62.7416V62.1816H166.301V62.7416C164.695 62.8163 163.407 63.3203 162.437 64.2536C161.466 65.187 160.981 66.4563 160.981 68.0616V89.4536C160.981 92.5896 160.327 95.315 159.021 97.6296C157.751 99.9443 155.903 101.755 153.477 103.062C151.087 104.331 148.231 104.966 144.909 104.966Z" fill="#7F869E"></path>
<path fill-rule="evenodd" clip-rule="evenodd" d="M85.3008 7.18161V0.18161H101.301V64.6816C101.301 92.572 78.6912 115.182 50.8008 115.182C24.0869 115.182 2.21765 94.4392 0.420174 68.1816H0.300781V0.18161H16.3008V7.18161L43.3008 7.18161V0.18161H59.3008V7.18161L85.3008 7.18161ZM85.3008 64.6816V54.8647C83.5011 56.7202 81.572 58.4822 79.525 60.1419C72.7672 65.6209 64.8288 69.9012 56.1941 72.801C47.5585 75.7011 38.344 77.1816 29.0655 77.1816H18.635C23.6418 90.0564 36.1556 99.1816 50.8008 99.1816C69.8546 99.1816 85.3008 83.7354 85.3008 64.6816ZM44.8184 52.6318C41.7702 55.8628 38.3345 58.6647 34.598 60.9662C40.2811 60.5227 45.8451 59.3984 51.1004 57.6335C58.0525 55.2987 64.2766 51.9067 69.4484 47.7136C74.6181 43.5222 78.6076 38.6369 81.287 33.3921C82.9786 30.0811 84.1359 26.6525 84.7582 23.1816H58.7858C58.2001 27.4357 57.118 31.6107 55.555 35.6104C53.0785 41.948 49.4374 47.7356 44.8184 52.6318ZM16.3008 51.3985V23.1816H42.5715C42.1287 25.4398 41.4868 27.6517 40.6524 29.787C38.9076 34.2522 36.3612 38.2803 33.1801 41.6522C29.9999 45.0233 26.2499 47.6708 22.1573 49.4677C20.2565 50.3023 18.2961 50.9472 16.3008 51.3985Z" fill="#1D3AA7"></path>
</svg>