<svg width="101" height="24" viewBox="0 0 101 24" fill="none" xmlns="http://www.w3.org/2000/svg">
<path d="M10.6137 3.58771C10.4439 3.18691 10.1617 2.63007 9.74664 2.02802C9.29071 1.36664 8.6691 0.642639 7.85043 0.00667055C8.24423 -0.0103968 8.62134 0.00633189 8.97016 0.0449277C9.22762 0.296602 9.45627 0.570444 9.65587 0.851578C10.2117 1.63443 10.5253 2.45013 10.6078 2.94348C10.6117 2.96726 10.6204 2.98943 10.6329 3.00938C10.6454 2.98943 10.6541 2.96726 10.6581 2.94348C10.7405 2.45013 11.0542 1.63443 11.61 0.851578C11.8096 0.570444 12.0382 0.296602 12.2957 0.0449277C12.6445 0.00633189 13.0216 -0.0103968 13.4154 0.00667055C12.5967 0.642639 11.9751 1.36664 11.5192 2.02802C11.1042 2.63007 10.8219 3.18691 10.6521 3.58771V3.68024C10.6459 3.66492 10.6395 3.64933 10.6329 3.63346C10.6263 3.64933 10.6199 3.66492 10.6137 3.68024V3.58771Z" fill="#15447A"></path>
<path d="M10.6329 0.444309C10.3872 0.342418 10.0542 0.237088 9.6597 0.154569C9.79826 0.314955 9.92612 0.479313 10.0434 0.644481C10.2707 0.964706 10.4609 1.29156 10.6137 1.60401V1.68377C10.6201 1.6704 10.6264 1.65699 10.6329 1.64355C10.6394 1.65699 10.6458 1.6704 10.6521 1.68377V1.60401C10.805 1.29156 10.9951 0.964706 11.2224 0.644481C11.3397 0.479313 11.4676 0.314955 11.6061 0.154569C11.2116 0.237088 10.8787 0.342418 10.6329 0.444309Z" fill="#15447A"></path>
<path d="M9.35604 2.2307C8.85756 1.50759 8.15998 0.716893 7.22345 0.0624878C7.0191 0.090277 6.81206 0.1281 6.60382 0.177455C7.31803 0.54199 7.9033 1.09239 8.40781 1.65537C8.68137 1.96062 8.93833 2.27817 9.18023 2.57711C9.28281 2.70387 9.38274 2.82737 9.48001 2.94507C9.72692 3.24385 9.95688 3.50558 10.1809 3.71063C10.0223 3.33892 9.75523 2.80979 9.35604 2.2307Z" fill="#15447A"></path>
<path d="M8.04851 1.89774C7.45706 1.23776 6.80045 0.65364 6.00092 0.35318C5.73621 0.445432 5.47179 0.558446 5.21061 0.695255C5.92328 0.829437 6.54003 1.21259 7.07401 1.64688C7.45942 1.96033 7.81811 2.31503 8.14305 2.63636C8.26719 2.75911 8.38647 2.87706 8.50036 2.98591C8.71043 3.18669 8.90231 3.35711 9.08111 3.48353C9.09058 3.49022 9.09996 3.49675 9.10925 3.50313C9.21969 3.5196 9.33465 3.54464 9.45539 3.57847C9.34001 3.45 9.22515 3.31434 9.11013 3.17516C9.0075 3.05098 8.90461 2.92381 8.80036 2.79498C8.56125 2.49945 8.31499 2.19511 8.04851 1.89774Z" fill="#15447A"></path>
<path d="M10.6329 23.6168C10.6394 23.6401 10.6458 23.6634 10.6521 23.6867C10.6521 23.6422 10.6521 23.5965 10.6521 23.5497C10.7466 23.225 10.8649 22.9062 10.9957 22.5926C11.1575 22.2046 11.3397 21.8219 11.5209 21.4456L11.5779 21.3274C11.7403 20.9905 11.9002 20.6589 12.0453 20.3278C12.6727 18.8965 13.0007 17.528 11.9954 16.0568C11.5872 16.1828 11.1035 16.2385 10.6329 16.2426C10.1623 16.2385 9.67864 16.1828 9.27039 16.0568C8.26513 17.528 8.59313 18.8965 9.22051 20.3278C9.36565 20.6589 9.52552 20.9905 9.68792 21.3274L9.74491 21.4456C9.92612 21.8219 10.1083 22.2046 10.2701 22.5926C10.4009 22.9062 10.5192 23.225 10.6137 23.5497C10.6137 23.5965 10.6137 23.6422 10.6137 23.6867C10.62 23.6634 10.6264 23.6401 10.6329 23.6168Z" fill="#15447A"></path>
<path d="M8.8519 15.8953C7.77224 17.5087 8.15717 19.0128 8.7951 20.4682C8.94307 20.8057 9.10592 21.1435 9.26792 21.4795L9.32496 21.5978C9.50617 21.9742 9.68446 22.3489 9.84214 22.727C10.0183 23.1493 10.1672 23.5723 10.2644 24C9.99197 23.5384 9.68792 23.1404 9.35947 22.7886C9.23044 22.537 9.08359 22.2831 8.92894 22.0286C8.77411 21.7738 8.61143 21.5183 8.44795 21.2616C8.10742 20.7268 7.76335 20.1865 7.47921 19.6351C7.06097 18.8235 6.79433 18.0253 6.8776 17.2553C6.95075 16.5791 7.29628 15.904 8.0969 15.2471C8.24704 15.5186 8.5143 15.7344 8.8519 15.8953Z" fill="#15447A"></path>
<path d="M6.42446 17.2184C6.51489 16.3823 6.96917 15.5727 7.96671 14.8163C7.96216 14.7607 7.96169 14.7033 7.96555 14.6444C7.99745 14.6087 8.06958 14.5651 8.23143 14.5204C8.39229 14.4759 8.58642 14.4444 8.81088 14.408C8.88483 14.396 8.96207 14.3835 9.0425 14.3698C9.35407 14.3167 9.69962 14.2475 10.0075 14.1212C10.2431 14.0245 10.464 13.8915 10.6329 13.7017C10.8018 13.8915 11.0227 14.0245 11.2583 14.1212C11.5662 14.2475 11.9118 14.3167 12.2233 14.3698C12.3038 14.3835 12.381 14.396 12.4549 14.408C12.6794 14.4444 12.8735 14.4759 13.0344 14.5204C13.1962 14.5651 13.2684 14.6087 13.3003 14.6444C13.3041 14.7033 13.3037 14.7607 13.2991 14.8163C14.2967 15.5727 14.7509 16.3823 14.8414 17.2184C14.9355 18.0887 14.6323 18.9615 14.2021 19.7962C13.9102 20.3627 13.5497 20.929 13.2042 21.4719C13.1238 21.5981 13.044 21.7235 12.9663 21.8469C13.6095 21.3656 14.3043 20.9694 15.0124 20.5656L15.0982 20.5167C15.8209 18.8951 15.8807 17.6163 15.6157 16.5962C15.3003 15.3818 14.5176 14.5056 13.7704 13.8335C13.7687 13.8352 13.7671 13.8369 13.7655 13.8386C13.762 13.8422 13.7586 13.8458 13.7552 13.8492C13.6945 13.9113 13.6393 13.9613 13.5941 13.9982C13.5692 14.0185 13.544 14.0374 13.5207 14.0532C13.5043 14.064 13.4879 14.0743 13.4697 14.0843C13.4321 14.1056 13.3884 14.1227 13.3441 14.1338C13.3044 14.1438 13.2623 14.1516 13.2175 14.1571C13.2024 14.1526 13.1874 14.1483 13.1726 14.1442C12.9822 14.0915 12.7481 14.0536 12.5162 14.0161C12.4473 14.0049 12.3784 13.9938 12.3111 13.9823C12.0042 13.93 11.7062 13.8681 11.4528 13.7642C11.209 13.6642 11.0191 13.5304 10.903 13.3382L11.0461 12.5177C11.0907 12.2625 11.2413 12.0298 11.4809 11.8769C11.505 11.8615 11.5292 11.8462 11.5534 11.8308L11.5574 11.8282C11.8858 11.6194 12.2274 11.4022 12.5639 11.0619C12.7201 10.904 12.7918 10.6982 12.7918 10.4901C12.5451 10.6955 12.2165 10.8102 11.8746 10.8102H9.39121C9.04934 10.8102 8.72069 10.6955 8.47402 10.4901C8.47402 10.6982 8.54573 10.904 8.70191 11.0619C9.03847 11.4022 9.37999 11.6194 9.70838 11.8282L9.70961 11.8289C9.73479 11.845 9.75989 11.8609 9.7849 11.8769C10.0245 12.0298 10.1751 12.2625 10.2197 12.5177L10.3629 13.3382C10.2467 13.5304 10.0568 13.6642 9.81298 13.7642C9.55963 13.8681 9.26164 13.93 8.95477 13.9823C8.88745 13.9938 8.81873 14.0049 8.74981 14.016C8.51791 14.0536 8.28359 14.0915 8.09326 14.1442C8.07841 14.1483 8.06342 14.1526 8.04834 14.1571C8.00349 14.1516 7.96145 14.1438 7.92173 14.1338C7.87743 14.1227 7.83374 14.1056 7.79612 14.0843C7.77791 14.0743 7.76153 14.064 7.74514 14.0532C7.72178 14.0374 7.69659 14.0185 7.67171 13.9982C7.6265 13.9613 7.57128 13.9113 7.5106 13.8492C7.50567 13.8441 7.50061 13.8389 7.49544 13.8335C6.74819 14.5056 5.96555 15.3818 5.6501 16.5962C5.38513 17.6163 5.44493 18.8951 6.16759 20.5167L6.25338 20.5656C6.96157 20.9694 7.65633 21.3656 8.29954 21.8469C8.22186 21.7235 8.14231 21.5986 8.06197 21.4723C7.71642 20.9295 7.3556 20.3627 7.06371 19.7962C6.63353 18.9615 6.33034 18.0887 6.42446 17.2184Z" fill="#15447A"></path>
<path d="M7.22643 13.507C6.43758 14.2076 5.55638 15.161 5.20611 16.5094C4.94733 17.5056 4.98224 18.7013 5.53298 20.1504C4.97386 19.8213 4.4144 19.4683 3.87296 19.0465C3.71754 18.6249 3.64281 18.2317 3.6301 17.8641C3.59808 16.9372 3.95932 16.1473 4.46884 15.4466C4.87109 14.8934 5.35642 14.407 5.81057 13.9517C5.93661 13.8254 6.06047 13.7012 6.17927 13.5789C6.42983 13.321 6.66005 13.0688 6.83477 12.8215L6.86158 12.822C6.93076 13.0063 7.01723 13.1819 7.11918 13.3461C7.15499 13.4036 7.19101 13.4573 7.22643 13.507Z" fill="#15447A"></path>
<path d="M6.48059 12.5661C6.58817 12.4065 6.65974 12.2611 6.6945 12.1262C6.67335 11.9329 6.67246 11.7378 6.69197 11.5421C6.70835 11.3786 6.73354 11.1683 6.74871 11.0448L6.61611 10.9448C6.5844 10.9208 6.55328 10.8968 6.52274 10.8726C6.51136 10.9078 6.49849 10.9438 6.48416 10.9806C6.40066 11.1951 6.26249 11.4499 6.05613 11.7399C5.64334 12.32 4.95142 13.0502 3.8547 13.8937C2.54064 14.9044 2.10622 15.911 2.12187 16.8034C2.12522 16.9945 2.14924 17.1818 2.19051 17.3644C2.52826 17.8037 2.88483 18.1849 3.25384 18.5236C3.20795 18.3018 3.18243 18.086 3.17517 17.8759C3.1396 16.8464 3.54337 15.9792 4.08392 15.2359C4.50646 14.6548 5.02181 14.1385 5.47858 13.6809C5.60135 13.5579 5.71989 13.4391 5.83125 13.3245C6.09802 13.0499 6.32269 12.8004 6.48059 12.5661Z" fill="#15447A"></path>
<path d="M6.13199 10.5312C6.12972 10.6025 6.10925 10.7096 6.05295 10.8543C5.98268 11.0348 5.86104 11.2623 5.66885 11.5324C5.28456 12.0725 4.62448 12.7739 3.55278 13.5982C2.24073 14.6074 1.7134 15.6496 1.66937 16.6225C1.50706 16.371 1.35819 16.1188 1.22208 15.8664C1.22885 15.701 1.24768 15.5365 1.27909 15.3732C1.46813 14.3905 2.11791 13.4256 3.40203 12.5503C4.50063 11.8014 5.12613 11.0999 5.48854 10.5665C5.60271 10.3985 5.69031 10.2479 5.75813 10.1186C5.86751 10.2569 5.9916 10.3947 6.13199 10.5312Z" fill="#15447A"></path>
<path d="M5.43516 9.76882C5.44716 9.74253 5.458 9.71802 5.46788 9.69519C5.33764 9.47282 5.24112 9.25144 5.17167 9.03469C5.02639 9.21876 4.83242 9.43745 4.58444 9.6841C4.0785 10.1873 3.33892 10.8157 2.3059 11.5165C1.1271 12.3162 0.651561 13.3546 0.510504 14.2311C0.612148 14.5336 0.73026 14.8378 0.866048 15.1425C1.11568 14.1065 1.8324 13.1181 3.12084 12.2398C4.17529 11.521 4.76306 10.8567 5.09648 10.366C5.26333 10.1205 5.36763 9.91673 5.43516 9.76882Z" fill="#15447A"></path>
<path d="M5.04323 8.44796C4.95954 8.61202 4.71564 8.95289 4.24146 9.42453C3.75612 9.90726 3.03793 10.5186 2.02555 11.2054C1.07659 11.8492 0.543725 12.633 0.266962 13.3851C0.101194 12.6961 0.0171512 12.0209 0 11.3724C0.250667 10.8157 0.968904 9.95765 2.53151 9.3215C3.55502 8.90481 4.30466 8.41124 4.81798 7.97113C4.89326 7.90659 4.9638 7.84289 5.02962 7.78047C5.01336 7.98885 5.01457 8.21317 5.04323 8.44796Z" fill="#15447A"></path>
<path d="M4.49807 7.69026C4.8701 7.37129 5.09347 7.09568 5.20021 6.92195C5.24622 6.77746 5.30072 6.63355 5.36347 6.49067C5.24214 6.44507 5.12631 6.39623 5.01586 6.34445C4.60563 6.64706 3.85936 7.11273 2.32681 7.64173C1.47974 7.93411 0.960278 8.3747 0.660343 8.86071C0.393172 9.29363 0.293996 9.77296 0.306262 10.2334C0.763607 9.78902 1.4237 9.33631 2.33817 8.96402C3.31386 8.56681 4.02088 8.09939 4.49807 7.69026Z" fill="#15447A"></path>
<path d="M5.54191 6.1274C4.1583 5.60641 3.60877 4.63334 3.59469 3.76657C3.57975 2.84587 4.15038 2.11601 4.90179 2.03319C5.23789 1.99615 5.57801 2.14367 6.07436 2.50925C6.30922 2.68224 6.56591 2.89359 6.86396 3.13899L6.89801 3.16703C7.14327 3.36895 7.41417 3.59141 7.71738 3.82825C7.58616 3.91367 7.45845 4.01004 7.33028 4.1115C7.02097 3.66852 6.19263 3.21655 4.56726 3.30994C4.44186 3.31715 4.34693 3.41119 4.35523 3.52C4.36354 3.6288 4.47193 3.71116 4.59734 3.70395C6.28324 3.60709 6.84914 4.12699 6.98485 4.39332C6.96413 4.41099 6.94356 4.42873 6.92313 4.44653C6.55386 4.35139 6.10454 4.33199 5.68105 4.35294C5.20568 4.37645 4.73422 4.45235 4.3976 4.5497C4.27837 4.58418 4.21393 4.696 4.25368 4.79944C4.29342 4.90289 4.4223 4.9588 4.54153 4.92431C4.83324 4.83995 5.26399 4.76908 5.70696 4.74717C6.01275 4.73204 6.31105 4.74095 6.56612 4.77951C6.14205 5.20323 5.7974 5.6577 5.54191 6.1274Z" fill="#15447A"></path>
<path d="M7.21129 2.88059C7.48351 3.1047 7.78305 3.35058 8.12167 3.61231C8.16992 3.59263 8.21903 3.57489 8.26915 3.55931C8.32832 3.54094 8.38791 3.52569 8.44822 3.51359C8.35395 3.43091 8.25896 3.34268 8.16337 3.25132C8.03916 3.13262 7.91369 3.00853 7.78584 2.8821C7.46586 2.56565 7.13081 2.23431 6.76274 1.93497C6.53377 1.74874 6.2876 1.57338 6.02661 1.42804C5.19245 0.96348 4.16573 1.27297 3.49078 1.94831C2.19335 3.2465 2.6179 4.28484 3.03138 5.21756C2.53384 5.28094 2.00592 5.63932 1.53232 6.21991C1.86072 6.04741 2.20182 5.91947 2.53313 5.82646C3.04605 5.68247 3.54267 5.62007 3.94533 5.60674C3.39777 5.0544 3.14971 4.39457 3.13961 3.77213C3.12305 2.75245 3.76302 1.76066 4.84444 1.64147C5.39081 1.58125 5.86666 1.83829 6.36891 2.20823C6.61366 2.38849 6.87873 2.60676 7.17229 2.84847L7.21129 2.88059Z" fill="#15447A"></path>
<path d="M2.67325 6.20216C2.34233 6.29506 2.00578 6.42459 1.68774 6.60102C1.12083 6.91551 0.735687 7.47007 0.514997 8.07965C0.465447 8.21651 0.418784 8.35713 0.375307 8.50124C0.739742 8.00071 1.31385 7.5664 2.15856 7.27482C3.50581 6.80979 4.21021 6.40184 4.60713 6.12531C4.54768 6.08898 4.4902 6.05168 4.43466 6.01349C4.07074 5.9762 3.39369 5.9999 2.67325 6.20216Z" fill="#15447A"></path>
<path d="M9.78184 7.32671L9.03802 9.5549C9.24339 8.92891 9.17584 8.32456 9.08739 7.906C8.7825 7.93275 8.55999 7.91268 8.35032 7.86624C7.79712 7.74371 7.4282 7.31869 7.07691 6.91398C7.02467 6.85379 6.9728 6.79404 6.92079 6.73582C6.84938 6.65588 6.76566 6.57288 6.666 6.48188C6.82654 6.50707 6.98355 6.53011 7.13758 6.55271C8.09007 6.69247 8.92848 6.81549 9.78184 7.32671Z" fill="#15447A"></path>
<path d="M9.03802 9.5549C9.03526 9.56332 9.03244 9.57175 9.02958 9.58019L9.03802 9.5549Z" fill="#15447A"></path>
<path d="M11.9098 2.2307C12.4083 1.50759 13.1058 0.716893 14.0424 0.0624878C14.2467 0.090277 14.4538 0.1281 14.662 0.177455C13.9478 0.54199 13.3625 1.09239 12.858 1.65537C12.5845 1.96062 12.3275 2.27817 12.0856 2.57711C11.983 2.70387 11.8831 2.82737 11.7858 2.94507C11.5389 3.24385 11.3089 3.50558 11.0849 3.71063C11.2435 3.33892 11.5106 2.80979 11.9098 2.2307Z" fill="#15447A"></path>
<path d="M13.2173 1.89774C13.8088 1.23776 14.4654 0.65364 15.2649 0.35318C15.5296 0.445432 15.794 0.558446 16.0552 0.695255C15.3425 0.829437 14.7258 1.21259 14.1918 1.64688C13.8064 1.96033 13.4477 2.31503 13.1228 2.63636C12.9986 2.75911 12.8794 2.87706 12.7655 2.98591C12.5554 3.18669 12.3635 3.35711 12.1847 3.48353C12.1752 3.49022 12.1659 3.49675 12.1566 3.50313C12.0461 3.5196 11.9312 3.54464 11.8104 3.57847C11.9258 3.45 12.0407 3.31434 12.1557 3.17516C12.2583 3.05098 12.3612 2.92383 12.4654 2.795C12.7046 2.49947 12.9508 2.19511 13.2173 1.89774Z" fill="#15447A"></path>
<path d="M12.4139 15.8953C13.4936 17.5087 13.1087 19.0128 12.4707 20.4682C12.3228 20.8057 12.1599 21.1435 11.9979 21.4795L11.9409 21.5978C11.7597 21.9742 11.5814 22.3489 11.4237 22.727C11.2476 23.1493 11.0986 23.5723 11.0015 24C11.2738 23.5384 11.5779 23.1404 11.9064 22.7886C12.0354 22.537 12.1822 22.2831 12.3369 22.0286C12.4917 21.7738 12.6544 21.5183 12.8179 21.2616C13.1584 20.7268 13.5025 20.1865 13.7866 19.6351C14.2049 18.8235 14.4715 18.0253 14.3882 17.2553C14.3151 16.5791 13.9695 15.904 13.1689 15.2471C13.0188 15.5186 12.7515 15.7344 12.4139 15.8953Z" fill="#15447A"></path>
<path d="M14.0394 13.507C14.8282 14.2076 15.7094 15.161 16.0597 16.5094C16.3185 17.5056 16.2836 18.7013 15.7328 20.1504C16.292 19.8213 16.8514 19.4683 17.3929 19.0465C17.5483 18.6249 17.623 18.2317 17.6357 17.8641C17.6677 16.9372 17.3065 16.1473 16.797 15.4466C16.3947 14.8934 15.9094 14.407 15.4553 13.9517C15.3292 13.8254 15.2053 13.7012 15.0866 13.5789C14.836 13.321 14.6058 13.0688 14.4311 12.8215L14.4042 12.822C14.3351 13.0063 14.2486 13.1819 14.1466 13.3461C14.1108 13.4036 14.0748 13.4573 14.0394 13.507Z" fill="#15447A"></path>
<path d="M14.7852 12.5661C14.6777 12.4065 14.6061 12.2611 14.5713 12.1262C14.5925 11.9329 14.5934 11.7378 14.5739 11.5421C14.5575 11.3786 14.5323 11.1683 14.5171 11.0448L14.6497 10.9448C14.6814 10.9208 14.7125 10.8968 14.7431 10.8726C14.7545 10.9078 14.7673 10.9438 14.7817 10.9806C14.8652 11.1951 15.0033 11.4499 15.2097 11.7399C15.6225 12.32 16.3144 13.0502 17.4111 13.8937C18.7252 14.9044 19.1596 15.911 19.144 16.8034C19.1406 16.9945 19.1166 17.1818 19.0753 17.3644C18.7376 17.8037 18.381 18.1849 18.012 18.5236C18.0579 18.3018 18.0834 18.086 18.0907 17.8759C18.1262 16.8464 17.7225 15.9792 17.1819 15.2359C16.7594 14.6548 16.244 14.1385 15.7872 13.6809C15.6645 13.5579 15.5459 13.4391 15.4346 13.3245C15.1678 13.0499 14.9431 12.8004 14.7852 12.5661Z" fill="#15447A"></path>
<path d="M15.1338 10.5312C15.1361 10.6025 15.1566 10.7096 15.2129 10.8543C15.2831 11.0348 15.4048 11.2623 15.597 11.5324C15.9813 12.0725 16.6413 12.7739 17.713 13.5982C19.0251 14.6074 19.5524 15.6496 19.5965 16.6225C19.7588 16.371 19.9076 16.1188 20.0437 15.8664C20.037 15.701 20.0181 15.5365 19.9867 15.3732C19.7977 14.3905 19.1479 13.4256 17.8638 12.5503C16.7652 11.8014 16.1397 11.0999 15.7773 10.5665C15.6631 10.3985 15.5755 10.2479 15.5077 10.1186C15.3983 10.2569 15.2742 10.3947 15.1338 10.5312Z" fill="#15447A"></path>
<path d="M15.8307 9.76882C15.8187 9.74253 15.8078 9.71802 15.7979 9.69519C15.9282 9.47282 16.0247 9.25144 16.0942 9.03469C16.2394 9.21876 16.4334 9.43745 16.6814 9.6841C17.1873 10.1873 17.9269 10.8157 18.9599 11.5165C20.1387 12.3162 20.6143 13.3546 20.7553 14.2311C20.6537 14.5336 20.5356 14.8378 20.3998 15.1425C20.1501 14.1065 19.4334 13.1181 18.145 12.2398C17.0905 11.521 16.5028 10.8567 16.1693 10.366C16.0025 10.1205 15.8982 9.91673 15.8307 9.76882Z" fill="#15447A"></path>
<path d="M16.2226 8.44796C16.3063 8.61202 16.5502 8.95289 17.0244 9.42453C17.5097 9.90726 18.2279 10.5186 19.2403 11.2054C20.1892 11.8492 20.7221 12.633 20.9989 13.3851C21.1646 12.6961 21.2487 12.0209 21.2658 11.3724C21.0152 10.8157 20.2969 9.95765 18.7343 9.3215C17.7108 8.90481 16.9612 8.41124 16.4478 7.97113C16.3726 7.90659 16.302 7.84289 16.2362 7.78047C16.2525 7.98885 16.2513 8.21317 16.2226 8.44796Z" fill="#15447A"></path>
<path d="M16.7678 7.69026C16.3957 7.37129 16.1724 7.09568 16.0656 6.92195C16.0196 6.77746 15.9651 6.63355 15.9024 6.49067C16.0237 6.44507 16.1395 6.39623 16.25 6.34445C16.6602 6.64706 17.4065 7.11273 18.939 7.64173C19.7861 7.93411 20.3055 8.3747 20.6055 8.86071C20.8727 9.29363 20.9718 9.77296 20.9596 10.2334C20.5022 9.78902 19.8421 9.33631 18.9277 8.96402C17.952 8.56681 17.2449 8.09939 16.7678 7.69026Z" fill="#15447A"></path>
<path d="M15.7239 6.1274C17.1075 5.60641 17.6571 4.63334 17.6711 3.76657C17.6861 2.84587 17.1154 2.11601 16.364 2.03319C16.0279 1.99615 15.6878 2.14367 15.1915 2.50925C14.9566 2.68224 14.6999 2.89359 14.4019 3.13899L14.3678 3.16703C14.1226 3.36895 13.8517 3.59141 13.5484 3.82825C13.6797 3.91367 13.8074 4.01004 13.9355 4.1115C14.2449 3.66852 15.0732 3.21655 16.6986 3.30994C16.824 3.31715 16.9189 3.41119 16.9106 3.52C16.9023 3.6288 16.7939 3.71116 16.6685 3.70395C14.9826 3.60709 14.4167 4.12699 14.281 4.39332C14.3017 4.41099 14.3223 4.42873 14.3427 4.44653C14.712 4.35139 15.1613 4.33199 15.5848 4.35294C16.0601 4.37645 16.5316 4.45235 16.8682 4.5497C16.9875 4.58418 17.0519 4.696 17.0121 4.79944C16.9724 4.90289 16.8435 4.9588 16.7243 4.92431C16.4326 4.83995 16.0018 4.76908 15.5589 4.74717C15.2531 4.73204 14.9548 4.74095 14.6997 4.77951C15.1238 5.20323 15.4684 5.6577 15.7239 6.1274Z" fill="#15447A"></path>
<path d="M14.0545 2.88059C13.7823 3.1047 13.4828 3.35058 13.1441 3.61231C13.0959 3.59263 13.0468 3.57489 12.9967 3.55931C12.9375 3.54094 12.8779 3.52569 12.8176 3.51359C12.9119 3.43091 13.0069 3.34268 13.1025 3.25132C13.2267 3.13262 13.3521 3.00853 13.48 2.8821C13.8 2.56565 14.135 2.23431 14.5031 1.93497C14.7321 1.74874 14.9782 1.57338 15.2392 1.42804C16.0734 0.96348 17.1001 1.27297 17.775 1.94831C19.0725 3.2465 18.6479 4.28484 18.2344 5.21756C18.732 5.28094 19.2599 5.63932 19.7335 6.21991C19.4051 6.04741 19.064 5.91947 18.7327 5.82646C18.2198 5.68247 17.7232 5.62007 17.3205 5.60674C17.868 5.0544 18.1161 4.39457 18.1262 3.77213C18.1428 2.75245 17.5028 1.76066 16.4214 1.64147C15.875 1.58125 15.3992 1.83829 14.8969 2.20823C14.6522 2.38849 14.3871 2.60676 14.0935 2.84847L14.0545 2.88059Z" fill="#15447A"></path>
<path d="M18.5926 6.20216C18.9235 6.29506 19.26 6.42459 19.5781 6.60101C20.145 6.9155 20.5301 7.47008 20.7508 8.07967C20.8004 8.21653 20.847 8.35714 20.8905 8.50124C20.5261 8.00071 19.952 7.5664 19.1073 7.27482C17.76 6.80979 17.0556 6.40184 16.6587 6.12531C16.7181 6.08898 16.7756 6.05168 16.8312 6.01349C17.1951 5.9762 17.8721 5.9999 18.5926 6.20216Z" fill="#15447A"></path>
<path d="M11.484 7.32671L12.2278 9.5549C12.2306 9.56332 12.2334 9.57175 12.2362 9.58019L12.2278 9.5549C12.0224 8.92891 12.09 8.32456 12.1784 7.906C12.4833 7.93275 12.7058 7.91268 12.9155 7.86624C13.4687 7.74371 13.8376 7.31869 14.1889 6.91397C14.2412 6.85379 14.293 6.79404 14.345 6.73582C14.4164 6.65588 14.5002 6.57288 14.5998 6.48188C14.4393 6.50707 14.2823 6.53011 14.1282 6.55271C13.1758 6.69247 12.3373 6.81549 11.484 7.32671Z" fill="#15447A"></path>
<path fill-rule="evenodd" clip-rule="evenodd" d="M32.1432 13.8528C31.9112 13.2771 31.7952 12.6455 31.7952 11.958C31.7952 11.2705 31.9112 10.6433 32.1432 10.0761C32.3752 9.50035 32.7018 9.00631 33.1228 8.59378C33.5525 8.17272 34.0552 7.85053 34.6309 7.62706C35.2153 7.39505 35.8597 7.27905 36.5643 7.27905C37.269 7.27905 37.9092 7.39505 38.485 7.62706C39.0693 7.85053 39.572 8.17272 39.993 8.59378C40.4227 9.00631 40.7535 9.50035 40.9855 10.0761C41.2176 10.6433 41.3336 11.2705 41.3336 11.958C41.3336 12.6455 41.2176 13.2771 40.9855 13.8528C40.7535 14.4199 40.4227 14.914 39.993 15.3351C39.572 15.7476 39.0693 16.0698 38.485 16.3018C37.9092 16.5253 37.269 16.637 36.5643 16.637C35.8597 16.637 35.2153 16.5253 34.6309 16.3018C34.0552 16.0698 33.5525 15.7476 33.1228 15.3351C32.7018 14.914 32.3752 14.4199 32.1432 13.8528ZM39.5548 11.958C39.5548 11.3565 39.4259 10.8323 39.1681 10.3855C38.9189 9.93001 38.5708 9.57341 38.124 9.31559C37.6772 9.05786 37.1573 8.92895 36.5643 8.92895C35.98 8.92895 35.4602 9.05786 35.0047 9.31559C34.5578 9.57341 34.2055 9.93001 33.9478 10.3855C33.6986 10.8323 33.574 11.3565 33.574 11.958C33.574 12.5509 33.6986 13.0751 33.9478 13.5306C34.2055 13.986 34.5578 14.3426 35.0047 14.6004C35.4602 14.8582 35.98 14.9871 36.5643 14.9871C37.1573 14.9871 37.6772 14.8582 38.124 14.6004C38.5708 14.3426 38.9189 13.986 39.1681 13.5306C39.4259 13.0751 39.5548 12.5509 39.5548 11.958Z" fill="#15447A"></path>
<path d="M49.7141 9.71522H49.8172V7.4466C49.6884 7.49815 49.5423 7.52396 49.379 7.52396C49.2329 7.52396 48.9966 7.48532 48.67 7.40796C48.3521 7.322 47.9654 7.27905 47.51 7.27905C46.496 7.27905 45.6066 7.47671 44.8418 7.87196C44.0856 8.25868 43.497 8.80434 43.076 9.50895C42.6549 10.205 42.4443 11.0213 42.4443 11.958C42.4443 12.6369 42.5603 13.2641 42.7923 13.8399C43.0243 14.407 43.3552 14.9011 43.7849 15.3222C44.2145 15.7433 44.7172 16.0698 45.293 16.3018C45.8773 16.5253 46.5175 16.637 47.2135 16.637C48.1244 16.637 48.9106 16.4479 49.5723 16.0698C50.234 15.6917 50.741 15.1676 51.0933 14.4973C51.4542 13.827 51.6347 13.0537 51.6347 12.1771C51.6347 12.1103 51.6379 12.0467 51.6444 11.9864C51.6546 11.8916 51.6729 11.8048 51.6991 11.726C51.7507 11.5971 51.8194 11.4897 51.9054 11.4038V11.3007H47.7678C47.7299 11.3007 47.6918 11.3003 47.6535 11.2996C47.6182 11.299 47.5828 11.2981 47.5472 11.2968C47.4916 11.2949 47.4357 11.2923 47.3795 11.2889C47.3161 11.2852 47.2521 11.2805 47.1878 11.2748C46.9901 11.2576 46.8139 11.2319 46.6593 11.1975V13.2986H46.7624C46.8655 13.1524 47.0373 13.0364 47.278 12.9505C47.5186 12.856 47.8322 12.8087 48.2189 12.8087H49.8036C49.7929 13.2127 49.6814 13.5779 49.4692 13.9044C49.2458 14.2395 48.9365 14.5059 48.5411 14.7035C48.1545 14.8925 47.7119 14.9871 47.2135 14.9871C46.6292 14.9871 46.1093 14.8582 45.6539 14.6004C45.207 14.3426 44.8547 13.986 44.597 13.5306C44.3477 13.0751 44.2231 12.5509 44.2231 11.958C44.2231 11.3479 44.3606 10.8151 44.6356 10.3597C44.9105 9.90428 45.2973 9.55197 45.7957 9.30276C46.3026 9.05355 46.8913 8.92895 47.5616 8.92895C47.8022 8.92895 48.0256 8.94616 48.2318 8.9805C48.4466 9.00631 48.6443 9.05355 48.8248 9.12231C49.0138 9.18246 49.1857 9.27265 49.3403 9.39295C49.5036 9.51325 49.6282 9.62065 49.7141 9.71522Z" fill="#15447A"></path>
<path fill-rule="evenodd" clip-rule="evenodd" d="M53.0135 13.8528C52.7815 13.2771 52.6655 12.6455 52.6655 11.958C52.6655 11.2705 52.7815 10.6433 53.0135 10.0761C53.2455 9.50035 53.572 9.00631 53.9931 8.59378C54.4228 8.17272 54.9255 7.85053 55.5012 7.62706C56.0856 7.39505 56.73 7.27905 57.4346 7.27905C58.1393 7.27905 58.7795 7.39505 59.3552 7.62706C59.9395 7.85053 60.4423 8.17272 60.8633 8.59378C61.293 9.00631 61.6238 9.50035 61.8558 10.0761C62.0879 10.6433 62.2039 11.2705 62.2039 11.958C62.2039 12.6455 62.0879 13.2771 61.8558 13.8528C61.6238 14.4199 61.293 14.914 60.8633 15.3351C60.4423 15.7476 59.9395 16.0698 59.3552 16.3018C58.7795 16.5253 58.1393 16.637 57.4346 16.637C56.73 16.637 56.0856 16.5253 55.5012 16.3018C54.9255 16.0698 54.4228 15.7476 53.9931 15.3351C53.572 14.914 53.2455 14.4199 53.0135 13.8528ZM60.4251 11.958C60.4251 11.3565 60.2961 10.8323 60.0383 10.3855C59.7892 9.93001 59.4411 9.57341 58.9943 9.31559C58.5475 9.05786 58.0276 8.92895 57.4346 8.92895C56.8503 8.92895 56.3305 9.05786 55.875 9.31559C55.4281 9.57341 55.0758 9.93001 54.8181 10.3855C54.5689 10.8323 54.4443 11.3565 54.4443 11.958C54.4443 12.5509 54.5689 13.0751 54.8181 13.5306C55.0758 13.986 55.4281 14.3426 55.875 14.6004C56.3305 14.8582 56.8503 14.9871 57.4346 14.9871C58.0276 14.9871 58.5475 14.8582 58.9943 14.6004C59.4411 14.3426 59.7892 13.986 60.0383 13.5306C60.2961 13.0751 60.4251 12.5509 60.4251 11.958Z" fill="#15447A"></path>
<path d="M76.8346 8.72268C76.5167 9.16955 76.203 9.77537 75.8937 10.5401L74.9011 12.9763C74.7035 13.4661 74.5188 13.8399 74.3469 14.0977C74.1836 14.3555 74.0204 14.5317 73.857 14.6262C73.7024 14.7207 73.5305 14.768 73.3415 14.768C73.1954 14.768 73.0579 14.7422 72.929 14.6906C72.8001 14.6305 72.6884 14.5488 72.5939 14.4457H72.4908V16.3792C72.5035 16.3827 72.5164 16.3861 72.5298 16.3893C72.5506 16.3945 72.5722 16.3995 72.5946 16.4043C72.6203 16.4098 72.647 16.415 72.6746 16.42C72.7221 16.4287 72.7725 16.4365 72.8259 16.4436C72.9634 16.4608 73.1138 16.4694 73.277 16.4694C73.6809 16.4694 74.0418 16.4135 74.3598 16.3018C74.6863 16.1901 74.9785 16.014 75.2363 15.7734C75.494 15.5242 75.7389 15.2062 75.971 14.8195C76.203 14.4328 76.4307 13.9645 76.6541 13.4146L77.6466 10.9784C77.8443 10.4886 78.0291 10.1148 78.2009 9.85703C78.3814 9.59061 78.5489 9.41016 78.7036 9.31567C78.7142 9.30862 78.7247 9.30172 78.7352 9.29512L78.7583 9.28118L78.7751 9.27139L78.7871 9.26471L78.8044 9.25537C78.8129 9.25092 78.8213 9.24662 78.8298 9.24246C78.8477 9.23364 78.8654 9.22563 78.8831 9.21828C78.9752 9.18009 79.0657 9.16095 79.1547 9.16095C79.2922 9.16095 79.4168 9.19106 79.5285 9.25121C79.6402 9.30276 79.7262 9.36291 79.7864 9.43167H79.8895V7.40796C79.8379 7.42517 79.7864 7.438 79.7348 7.4466C79.7154 7.44986 79.6959 7.45253 79.6765 7.45461C79.6649 7.4558 79.6534 7.45676 79.6418 7.4575C79.6332 7.4581 79.6246 7.45854 79.616 7.45884C79.604 7.45928 79.592 7.45951 79.5801 7.45951H79.4125C79.3856 7.45498 79.3494 7.45172 79.3037 7.44957C79.2618 7.44757 79.2122 7.4466 79.1547 7.4466C78.6821 7.4466 78.2568 7.54547 77.8787 7.74306C77.5091 7.94072 77.1611 8.26728 76.8346 8.72268Z" fill="#15447A"></path>
<path d="M80.7295 9.03212C80.7295 8.6454 80.6952 8.34034 80.6264 8.11694C80.5576 7.88494 80.4589 7.71739 80.3299 7.61422V7.51113H82.8435V7.61422C82.7146 7.71739 82.6157 7.88494 82.5469 8.11694C82.4783 8.34034 82.4438 8.6454 82.4438 9.03212V13.1697C82.4438 13.7626 82.5728 14.2137 82.8306 14.5231C83.0883 14.8325 83.4664 14.9872 83.9648 14.9872C84.4633 14.9872 84.8414 14.8325 85.0991 14.5231C85.3569 14.2137 85.4858 13.7626 85.4858 13.1697V9.03212C85.4858 8.6454 85.4515 8.34034 85.3827 8.11694C85.314 7.88494 85.2151 7.71739 85.0863 7.61422V7.51113H87.5997V7.61422C87.4708 7.71739 87.372 7.88494 87.3033 8.11694C87.2345 8.34034 87.2002 8.6454 87.2002 9.03212V13.247C87.2002 13.9774 87.0756 14.5962 86.8264 15.1032C86.5858 15.6101 86.2248 15.9925 85.7436 16.2503C85.2624 16.5082 84.6694 16.6371 83.9648 16.6371C83.2602 16.6371 82.6672 16.5082 82.186 16.2503C81.7048 15.9925 81.3396 15.6101 81.0904 15.1032C80.8498 14.5962 80.7295 13.9774 80.7295 13.247V9.03212Z" fill="#15447A"></path>
<path d="M88.9259 9.13521C88.9259 8.74857 88.8872 8.4263 88.8099 8.16849C88.7325 7.91068 88.6208 7.72592 88.4747 7.61422V7.51113H90.7691V7.58849C90.6401 7.75173 90.5886 7.94079 90.6144 8.15559C90.6401 8.37045 90.7561 8.57242 90.9624 8.7614L93.2596 10.8238L95.3965 8.83876C95.6285 8.62396 95.7617 8.40479 95.796 8.1814C95.839 7.94939 95.8003 7.75173 95.68 7.58849V7.51113H97.9744V7.61422C97.8369 7.72592 97.7252 7.91068 97.6393 8.16849C97.5619 8.4263 97.5233 8.74857 97.5233 9.13521V14.884C97.5233 15.2707 97.5576 15.5801 97.6264 15.8121C97.6951 16.0355 97.7939 16.1988 97.9228 16.3019V16.405H95.4094V16.3019C95.5382 16.1988 95.6371 16.0355 95.7058 15.8121C95.7746 15.5801 95.8089 15.2707 95.8089 14.884V10.5628L93.2568 12.8733H93.2052L90.6401 10.5889V14.884C90.6401 15.2707 90.6746 15.5801 90.7433 15.8121C90.812 16.0355 90.9109 16.1988 91.0398 16.3019V16.405H88.5262V16.3019C88.6552 16.1988 88.7539 16.0355 88.8227 15.8121C88.8915 15.5801 88.9259 15.2707 88.9259 14.884V9.13521Z" fill="#15447A"></path>
<path fill-rule="evenodd" clip-rule="evenodd" d="M68.9013 14.884C68.9013 15.2793 68.9401 15.593 69.0174 15.825C69.1033 16.0484 69.2193 16.2074 69.3654 16.3019V16.405H66.7874V16.3019C66.9164 16.1988 67.0152 16.0355 67.0839 15.8121C67.1527 15.5801 67.1871 15.2707 67.1871 14.884V9.03212C67.1871 8.6454 67.1484 8.34034 67.0711 8.11694C66.9937 7.88494 66.8863 7.71739 66.7488 7.61422V7.51113H69.9583C71.0583 7.51113 71.9176 7.79468 72.5363 8.36185C73.1636 8.92902 73.4772 9.71099 73.4772 10.7078C73.4772 11.3694 73.3354 11.9409 73.0519 12.4221C72.7683 12.8947 72.3644 13.2599 71.8402 13.5177C71.3161 13.7755 70.6888 13.9044 69.9583 13.9044H68.9013V14.884ZM68.9013 9.08367V12.3319H69.881C70.474 12.3319 70.9251 12.1944 71.2344 11.9194C71.5438 11.6358 71.6984 11.232 71.6984 10.7078C71.6984 10.175 71.5438 9.77114 71.2344 9.49612C70.9251 9.22118 70.474 9.08367 69.881 9.08367H68.9013Z" fill="#15447A"></path>
<path d="M63.5594 8.11694C63.6282 8.34034 63.6625 8.6454 63.6625 9.03212V14.884C63.6625 15.0479 63.6564 15.198 63.644 15.3341C63.6272 15.5191 63.5991 15.6784 63.5594 15.8121C63.5391 15.8783 63.5161 15.9393 63.4904 15.9949C63.4664 16.0471 63.44 16.0945 63.4114 16.1373C63.3674 16.2031 63.318 16.258 63.263 16.3019V16.405H65.7765V16.3019C65.6476 16.1988 65.5487 16.0355 65.48 15.8121C65.4113 15.5801 65.3769 15.2707 65.3769 14.884V9.03212C65.3769 8.6454 65.4113 8.34034 65.48 8.11694C65.5487 7.88494 65.6476 7.71739 65.7765 7.61422V7.51113H63.263V7.61422C63.3919 7.71739 63.4907 7.88494 63.5594 8.11694Z" fill="#15447A"></path>
<path d="M27.2239 14.8067H29.8404C30.2272 14.8067 30.5365 14.7723 30.7685 14.7035C31.0005 14.6263 31.1681 14.5188 31.2712 14.3814H31.3743V16.5082C31.2197 16.4651 31.0436 16.4351 30.8459 16.4179C30.6568 16.4093 30.4635 16.405 30.2658 16.405H25.0713V16.3019C25.2088 16.1988 25.3162 16.0355 25.3936 15.8121C25.4708 15.5801 25.5096 15.2707 25.5096 14.884V9.03212C25.5096 8.6454 25.4751 8.34034 25.4064 8.11694C25.3377 7.88494 25.2388 7.71739 25.1099 7.61422V7.51113H27.6879V7.61422C27.6239 7.65561 27.5657 7.70938 27.5132 7.77554C27.446 7.86039 27.3882 7.96556 27.3399 8.09113C27.2625 8.3146 27.2239 8.62827 27.2239 9.03212V14.8067Z" fill="#15447A"></path>
<path fill-rule="evenodd" clip-rule="evenodd" d="M92.6524 20.7501C92.6524 21.1821 92.7273 21.5141 92.8771 21.7463C93.0269 21.9785 93.2404 22.0946 93.5176 22.0946C93.7997 22.0946 94.0144 21.9785 94.1617 21.7463C94.3115 21.5141 94.3865 21.1821 94.3865 20.7501C94.3865 20.3182 94.3115 19.9861 94.1617 19.7539C94.0144 19.5217 93.7997 19.4056 93.5176 19.4056C93.2404 19.4056 93.0269 19.5217 92.8771 19.7539C92.7273 19.9861 92.6524 20.3182 92.6524 20.7501ZM94.0606 20.7501C94.0606 21.0922 94.0144 21.3518 93.9221 21.5291C93.8322 21.7064 93.6973 21.795 93.5176 21.795C93.3403 21.795 93.2055 21.7064 93.1131 21.5291C93.0207 21.3518 92.9745 21.0922 92.9745 20.7501C92.9745 20.4081 93.0207 20.1484 93.1131 19.9711C93.2055 19.7938 93.3403 19.7052 93.5176 19.7052C93.6973 19.7052 93.8322 19.7938 93.9221 19.9711C94.0144 20.1484 94.0606 20.4081 94.0606 20.7501Z" fill="#15447A"></path>
<path d="M91.907 21.7463H91.1985L91.6373 21.1509C91.7996 20.9311 91.9157 20.7414 91.9856 20.5816C92.058 20.4218 92.0942 20.272 92.0942 20.1322C92.0942 19.9124 92.0193 19.7389 91.8695 19.6116C91.7197 19.4817 91.5162 19.4168 91.2591 19.4168C91.1667 19.4168 91.0893 19.4231 91.0269 19.4355C90.9644 19.448 90.9133 19.4605 90.8733 19.473C90.8359 19.483 90.8034 19.488 90.7759 19.488H90.7347C90.7222 19.4855 90.7035 19.483 90.6786 19.4805V19.9486H90.7048C90.7222 19.9212 90.7422 19.8962 90.7647 19.8737C90.7897 19.8513 90.8184 19.83 90.8508 19.8101C90.8908 19.7851 90.9432 19.7626 91.0081 19.7427C91.073 19.7227 91.143 19.7127 91.2179 19.7127C91.3851 19.7127 91.5175 19.7539 91.6149 19.8363C91.7122 19.9187 91.7609 20.031 91.7609 20.1734C91.7609 20.2483 91.7434 20.3331 91.7085 20.428C91.6735 20.5204 91.6173 20.629 91.5399 20.7539C91.465 20.8787 91.3664 21.0248 91.2441 21.1921L90.6411 22.016V22.0422H92.0156C92.063 22.0422 92.1092 22.0435 92.1542 22.046C92.1991 22.051 92.2391 22.0584 92.274 22.0684V21.5965H92.244C92.2191 21.644 92.1791 21.6814 92.1242 21.7089C92.0718 21.7339 91.9994 21.7463 91.907 21.7463Z" fill="#15447A"></path>
<path d="M82.3448 21.7389H81.416V20.7314H81.8954C81.9778 20.7314 82.039 20.7401 82.0789 20.7576C82.1189 20.7726 82.1488 20.7951 82.1688 20.825H82.195V20.3381H82.1688C82.1488 20.3656 82.1189 20.3881 82.0789 20.4056C82.039 20.423 81.9778 20.4318 81.8954 20.4318H81.416V19.7614H82.3223C82.4147 19.7614 82.4871 19.7739 82.5396 19.7988C82.5945 19.8238 82.6344 19.8613 82.6594 19.9112H82.6894V19.4318C82.6544 19.4393 82.6145 19.4455 82.5695 19.4505C82.5246 19.4555 82.4784 19.458 82.431 19.458H80.9628V19.488C81.0028 19.5105 81.034 19.5492 81.0565 19.6041C81.0814 19.659 81.0939 19.7364 81.0939 19.8363V21.6639C81.0939 21.7638 81.0814 21.8412 81.0565 21.8962C81.034 21.9511 81.0028 21.9898 80.9628 22.0123V22.0422H82.4534C82.5009 22.0422 82.5471 22.0435 82.592 22.046C82.6394 22.051 82.6794 22.0584 82.7118 22.0684V21.589H82.6856C82.6607 21.6365 82.6207 21.6739 82.5658 21.7014C82.5109 21.7264 82.4372 21.7389 82.3448 21.7389Z" fill="#15447A"></path>
<path d="M84.1532 19.8775H84.127C84.1095 19.855 84.087 19.835 84.0596 19.8176C84.0346 19.7976 84.0059 19.7814 83.9734 19.7689C83.951 19.7614 83.9247 19.7551 83.8948 19.7501C83.8648 19.7427 83.8311 19.7389 83.7937 19.7389C83.6663 19.7389 83.5639 19.7714 83.4865 19.8363C83.4091 19.9012 83.3704 19.9836 83.3704 20.0835C83.3704 20.1609 83.3917 20.2295 83.4341 20.2895C83.4766 20.3469 83.5502 20.4106 83.6551 20.4805L83.8498 20.6078C83.9597 20.6802 84.0496 20.7551 84.1195 20.8325C84.1919 20.9074 84.2456 20.9873 84.2805 21.0722C84.3155 21.1571 84.333 21.2507 84.333 21.3531C84.333 21.5628 84.2568 21.7339 84.1045 21.8662C83.9547 21.996 83.74 22.0609 83.4603 22.0609C83.3879 22.0609 83.3143 22.0559 83.2394 22.046C83.167 22.0385 83.107 22.0297 83.0596 22.0197V21.6003H83.0858L83.1457 21.6602C83.1657 21.6752 83.1882 21.6889 83.2131 21.7014C83.2431 21.7189 83.2806 21.7339 83.3255 21.7463C83.3704 21.7588 83.4204 21.7651 83.4753 21.7651C83.6326 21.7651 83.7575 21.7276 83.8498 21.6527C83.9422 21.5753 83.9884 21.4754 83.9884 21.3531C83.9884 21.2557 83.9584 21.1696 83.8985 21.0947C83.8411 21.0173 83.7437 20.9336 83.6064 20.8437L83.4154 20.7127C83.2781 20.6228 83.1782 20.5279 83.1158 20.428C83.0558 20.3282 83.0259 20.2146 83.0259 20.0872C83.0259 19.8925 83.097 19.7364 83.2394 19.6191C83.3842 19.4992 83.5827 19.4393 83.8349 19.4393C83.8848 19.4393 83.926 19.4418 83.9584 19.4468C83.9934 19.4493 84.0234 19.4505 84.0483 19.4505C84.0758 19.4505 84.1108 19.4443 84.1532 19.4318V19.8775Z" fill="#15447A"></path>
<path d="M84.8352 19.7614H85.2584V21.6864C85.2584 21.7813 85.2472 21.8537 85.2247 21.9036C85.2048 21.9536 85.1748 21.991 85.1348 22.016V22.0422H85.7041V22.016C85.6642 21.991 85.633 21.9536 85.6105 21.9036C85.5905 21.8537 85.5805 21.7813 85.5805 21.6864V19.7614H86.0037C86.0961 19.7614 86.1685 19.7739 86.221 19.7988C86.2759 19.8238 86.3158 19.8613 86.3408 19.9112H86.3708V19.4318C86.3358 19.4393 86.2959 19.4455 86.2509 19.4505C86.206 19.4555 86.1598 19.458 86.1124 19.458H84.7266C84.6817 19.458 84.6355 19.4555 84.5881 19.4505C84.5431 19.4455 84.5032 19.4393 84.4682 19.4318V19.9112H84.4982C84.5231 19.8613 84.5618 19.8238 84.6143 19.7988C84.6692 19.7739 84.7429 19.7614 84.8352 19.7614Z" fill="#15447A"></path>
<path fill-rule="evenodd" clip-rule="evenodd" d="M87.4372 19.458C87.7394 19.458 87.9978 19.5092 88.2125 19.6116C88.4297 19.7139 88.5958 19.8625 88.7106 20.0573C88.828 20.2495 88.8866 20.4805 88.8866 20.7501C88.8866 21.0198 88.828 21.252 88.7106 21.4467C88.5958 21.639 88.4297 21.7863 88.2125 21.8887C87.9978 21.991 87.7394 22.0422 87.4372 22.0422H86.6245V22.0123C86.6645 21.9898 86.6957 21.9511 86.7182 21.8962C86.7431 21.8412 86.7556 21.7638 86.7556 21.6639V19.8363C86.7556 19.7364 86.7431 19.659 86.7182 19.6041C86.6957 19.5492 86.6645 19.5105 86.6245 19.488V19.458H87.4372ZM88.5496 20.7501C88.5496 20.5504 88.5059 20.3768 88.4185 20.2295C88.3311 20.0797 88.2075 19.9649 88.0477 19.885C87.8904 19.8026 87.7019 19.7614 87.4822 19.7614H87.0777V21.7389H87.4822C87.7019 21.7389 87.8904 21.6989 88.0477 21.619C88.2075 21.5366 88.3311 21.4218 88.4185 21.2744C88.5059 21.1246 88.5496 20.9499 88.5496 20.7501Z" fill="#15447A"></path>
<path d="M89.0963 21.8475C89.0963 21.9124 89.1175 21.9673 89.1599 22.0123C89.2049 22.0572 89.261 22.0797 89.3285 22.0797C89.3934 22.0797 89.4471 22.0572 89.4895 22.0123C89.5344 21.9673 89.5569 21.9124 89.5569 21.8475C89.5569 21.785 89.5344 21.7314 89.4895 21.6864C89.4471 21.6415 89.3934 21.619 89.3285 21.619C89.261 21.619 89.2049 21.6415 89.1599 21.6864C89.1175 21.7314 89.0963 21.785 89.0963 21.8475Z" fill="#15447A"></path>
<path d="M95.6502 21.6864C95.6502 21.7813 95.6614 21.8537 95.6839 21.9036C95.7089 21.9536 95.7413 21.991 95.7813 22.016V22.0422H95.1933V22.016C95.2357 21.991 95.2682 21.9536 95.2907 21.9036C95.3156 21.8537 95.3281 21.7813 95.3281 21.6864V19.8775L94.7588 20.1509H94.7289V19.84L95.6202 19.4318H95.6502V21.6864Z" fill="#15447A"></path>
<path fill-rule="evenodd" clip-rule="evenodd" d="M97.3451 20.9973C97.2528 21.0348 97.1554 21.0535 97.0531 21.0535C96.8983 21.0535 96.7597 21.0185 96.6374 20.9486C96.515 20.8787 96.4189 20.7826 96.349 20.6602C96.2791 20.5379 96.2441 20.3993 96.2441 20.2445C96.2441 20.0797 96.2816 19.9349 96.3565 19.8101C96.4314 19.6827 96.5337 19.5841 96.6636 19.5142C96.7934 19.4418 96.9432 19.4056 97.113 19.4056C97.2803 19.4056 97.4288 19.4405 97.5587 19.5105C97.6885 19.5779 97.7896 19.6727 97.862 19.7951C97.9369 19.9174 97.9744 20.0585 97.9744 20.2183C97.9744 20.3282 97.9557 20.4393 97.9182 20.5516C97.8808 20.6615 97.8183 20.7876 97.731 20.9299L97.0531 22.0422H96.6935V22.016L97.3451 20.9973ZM97.6561 20.2333C97.6561 20.3381 97.6323 20.4318 97.5849 20.5142C97.5375 20.5966 97.4725 20.6615 97.3901 20.7089C97.3078 20.7539 97.2129 20.7763 97.1055 20.7763C96.9981 20.7763 96.9045 20.7539 96.8246 20.7089C96.7447 20.664 96.6811 20.6016 96.6336 20.5217C96.5887 20.4393 96.5662 20.3469 96.5662 20.2445C96.5662 20.1372 96.5887 20.0435 96.6336 19.9636C96.6811 19.8837 96.746 19.8213 96.8284 19.7764C96.9108 19.7289 97.0056 19.7052 97.113 19.7052C97.2179 19.7052 97.3102 19.7277 97.3901 19.7726C97.4725 19.8176 97.5375 19.88 97.5849 19.9599C97.6323 20.0373 97.6561 20.1284 97.6561 20.2333Z" fill="#15447A"></path>
<path d="M100.343 6.74274C100.343 7.17876 99.9895 7.53222 99.5534 7.53222C99.1174 7.53222 98.7639 7.17876 98.7639 6.74274C98.7639 6.30671 99.1174 5.95325 99.5534 5.95325C99.9895 5.95325 100.343 6.30671 100.343 6.74274Z" fill="#15447A"></path>
</svg>