<svg width="240" height="41" viewBox="0 0 240 41" fill="none" xmlns="http://www.w3.org/2000/svg">
<path d="M39.1447 33.3661L39.1477 33.3695L32.6776 39.0465C31.351 40.2393 29.6357 40.915 27.8476 40.9483L27.8326 40.9486H5.66019C4.83941 40.9831 4.02151 40.8295 3.26979 40.4995C2.50478 40.1638 1.82894 39.6547 1.29671 39.0124C0.764448 38.3703 0.390749 37.6134 0.205024 36.8023C0.0227516 36.005 0.026707 35.1759 0.217453 34.3802L1.92453 25.6882C2.07639 24.9316 2.47773 24.2467 3.06517 23.7426L3.14888 23.6708C2.96716 23.3965 2.83424 23.0926 2.7563 22.7724C2.65291 22.3477 2.6493 21.9058 2.74453 21.4808L4.455 12.7726L4.45764 12.7602C4.79052 11.1976 5.62898 9.78682 6.84471 8.74384L12.7685 3.54618C13.0426 3.2331 13.3435 2.94146 13.669 2.67484C14.9657 1.61267 16.5793 1.00782 18.2578 0.954276L18.2857 0.953384L40.485 1.01693C41.3049 0.982846 42.1218 1.13657 42.8727 1.4661C43.6378 1.80187 44.3136 2.31102 44.8458 2.95316C45.378 3.5952 45.7518 4.35217 45.9375 5.16362C46.12 5.96114 46.1157 6.78959 45.9253 7.58487L41.685 29.2304L41.6789 29.2567C41.3065 30.8652 40.4163 32.3079 39.1447 33.3661Z" fill="#03301D"></path>
<path d="M40.1385 3.01698C40.7217 2.98755 41.3037 3.09504 41.838 3.33068C42.3723 3.56631 42.8441 3.92357 43.2157 4.37407C43.5872 4.82456 43.8482 5.35568 43.9779 5.92505C44.1075 6.49442 44.1022 7.08627 43.9623 7.6532L39.7402 29.3125C39.4436 30.5994 38.7296 31.7521 37.7094 32.5907C36.6892 33.4293 35.4201 33.9068 34.1001 33.9487H12.0098C11.4265 33.9778 10.8444 33.8703 10.3099 33.6347C9.7754 33.399 9.30332 33.0419 8.93121 32.5917C8.5591 32.1414 8.29723 31.6105 8.16648 31.0413C8.03574 30.472 8.03973 29.88 8.1781 29.3125L9.88288 20.55C9.98284 20.1223 10.2214 19.7397 10.5614 19.4617C10.9014 19.1836 11.3238 19.0257 11.7629 19.0126C15.7938 19.156 19.6654 19.4587 23.2741 20.7571L24.0707 25.7677C24.0902 25.8887 24.154 25.9981 24.2497 26.0746C24.3454 26.1512 24.4661 26.1895 24.5885 26.182C24.729 26.1795 24.8665 26.14 24.9868 26.0672C25.1071 25.9945 25.2061 25.8911 25.2736 25.7677L27.998 20.7571L33.4469 19.0365C33.5787 18.9943 33.6973 18.9186 33.7909 18.8166C33.8845 18.7146 33.9499 18.59 33.9806 18.4551C34.0118 18.3357 33.9971 18.209 33.9396 18.0999C33.8822 17.9908 33.786 17.9073 33.6699 17.8656L28.8902 16.1528L28.0936 11.1424C28.0742 11.0207 28.0106 10.9104 27.9152 10.8326C27.8197 10.7547 27.6989 10.7147 27.5758 10.7202C27.4344 10.7234 27.2964 10.7642 27.176 10.8384C27.0556 10.9126 26.9571 11.0175 26.8907 11.1424L24.1663 16.1528C20.2156 17.286 16.1278 17.8705 12.0178 17.8895C11.8205 17.9063 11.6221 17.8759 11.4388 17.801C11.2555 17.7262 11.0926 17.609 10.9635 17.4589C10.8344 17.3088 10.7428 17.1301 10.6962 16.9377C10.6496 16.7453 10.6493 16.5445 10.6954 16.3519L12.4002 7.58942C12.6951 6.30315 13.4076 5.15073 14.4265 4.31203C15.4454 3.47332 16.7133 2.99567 18.0323 2.95338L40.1385 3.01698Z" fill="#86EE02"></path>
<path d="M176.026 31.9563C171.93 31.9563 169.024 30.286 168.108 27.1346L173.464 24.7081C173.844 26.0001 174.954 26.5989 176.97 26.5989C178.538 26.5989 179.806 26.1262 179.983 25.1177C180.206 23.8572 178.959 23.6681 177.057 23.3845C173.908 22.9118 169.389 21.6827 170.284 16.609C170.973 12.7013 175.053 9.70747 179.853 9.70747C183.629 9.70747 186.534 11.3777 187.451 14.5291L182.095 16.9557C181.67 15.9157 180.668 15.0648 178.652 15.0648C177.244 15.0648 176.398 15.506 176.243 16.3884C176.032 17.5859 177.373 17.9641 179.429 18.2792C182.546 18.752 186.815 19.9495 185.915 25.0547C185.226 28.9624 180.826 31.9563 176.026 31.9563Z" fill="#03301D"></path>
<path d="M208.57 31.452H214.586L219.317 16.4199L220.514 28.8679C220.677 30.6642 222.121 31.5466 223.881 31.5466C225.673 31.5466 227.339 30.6327 228.216 28.7418L233.807 16.4514L232.89 31.452H238.874L239.448 13.6782C239.52 11.0941 238.036 9.70747 235.508 9.70747C233.204 9.70747 231.069 10.7474 230.044 13.111L225.159 24.2984L224.205 13.0164C224.014 10.6529 222.292 9.70747 220.052 9.70747C217.46 9.70747 215.429 11.0626 214.569 13.5837L208.57 31.452Z" fill="#03301D"></path>
<path d="M188.501 21.8403C187.39 28.1431 189.78 31.8302 196.564 31.8302C203.316 31.8302 207.07 28.1431 208.181 21.8403L210.237 10.1802H204.317L202.289 21.6827C201.711 24.9602 200.192 26.3153 197.536 26.3153C194.912 26.3153 193.871 24.9602 194.449 21.6827L196.477 10.1802H190.557L188.501 21.8403Z" fill="#03301D"></path>
<path fill-rule="evenodd" clip-rule="evenodd" d="M148.221 31.452L154.147 31.4205L155.058 26.2523H157.746C164.018 26.2523 168.104 23.2269 169.004 18.1217C169.876 13.174 166.66 10.1802 160.26 10.1802H151.972L148.221 31.452ZM156.947 15.5375H159.475C162.035 15.5375 163.218 16.4514 162.924 18.1217C162.607 19.918 161.187 20.8949 158.531 20.8949H156.003L156.947 15.5375Z" fill="#03301D"></path>
<path d="M142.221 10.1802H148.141L144.39 31.452H138.47L142.221 10.1802Z" fill="#03301D"></path>
<path fill-rule="evenodd" clip-rule="evenodd" d="M115.304 20.8318C114.187 27.1661 118.212 31.9247 124.74 31.9247C131.268 31.9247 136.971 27.1661 138.088 20.8318C139.205 14.4976 135.18 9.73897 128.652 9.73897C122.124 9.73897 116.421 14.4976 115.304 20.8318ZM132.008 20.8318C131.452 23.9832 128.72 26.4098 125.712 26.4098C122.704 26.4098 120.828 23.9832 121.384 20.8318C121.94 17.6805 124.671 15.2539 127.679 15.2539C130.687 15.2539 132.564 17.6805 132.008 20.8318Z" fill="#03301D"></path>
<path d="M102.926 31.9247C96.4622 31.9247 92.3955 27.0401 93.4902 20.8318C94.5849 14.6236 100.31 9.73897 106.838 9.73897C110.678 9.73897 114.11 11.6928 115.05 15.2539L109.751 17.9011C109.138 16.2938 108.111 15.2224 105.615 15.2224C102.575 15.2224 100.143 17.5859 99.5535 20.9264C98.9367 24.4244 100.59 26.6619 103.854 26.6619C105.582 26.6619 106.698 26.5043 107.77 25.685L108.266 22.754L102.727 20.3064H114.423L114.258 21.3045H114.271L114.088 22.3402L114.077 22.4085L114.076 22.409L113.159 27.6073C111.051 30.1284 107.278 31.9247 102.926 31.9247Z" fill="#03301D"></path>
<path fill-rule="evenodd" clip-rule="evenodd" d="M70.0514 20.8318C68.9345 27.1661 72.9594 31.9247 79.4874 31.9247C86.0154 31.9247 91.7185 27.1661 92.8354 20.8318C93.9523 14.4976 89.9274 9.73897 83.3994 9.73897C76.8714 9.73897 71.1683 14.4976 70.0514 20.8318ZM86.7554 20.8318C86.1997 23.9832 83.4679 26.4098 80.4599 26.4098C77.4519 26.4098 75.5757 23.9832 76.1314 20.8318C76.6871 17.6805 79.419 15.2539 82.427 15.2539C85.435 15.2539 87.3111 17.6805 86.7554 20.8318Z" fill="#03301D"></path>
<path d="M62.3859 10.1802L59.5797 26.0947H69.1157L68.1711 31.452H57.8351C54.1871 31.452 53.0485 29.5612 53.5764 26.5674L56.4659 10.1802H62.3859Z" fill="#03301D"></path>
</svg>