<svg width="242" height="40" viewBox="0 0 242 40" fill="none" xmlns="http://www.w3.org/2000/svg">
<path d="M53.1738 3.4704V30.9174H70.4894V25.9437H58.8843V3.4704H53.1738Z" fill="#283841"></path>
<path d="M140.38 10.8019V30.9174H145.906V10.8019H140.38Z" fill="#283841"></path>
<path d="M140.38 3.4704V8.99663H145.906V3.4704H140.38Z" fill="#283841"></path>
<path fill-rule="evenodd" clip-rule="evenodd" d="M148.845 38.2857V10.8019H154.003V12.8887C154.599 12.1874 155.335 11.6269 156.213 11.2072C157.367 10.6423 158.681 10.3598 160.155 10.3598C162.071 10.3598 163.802 10.8265 165.35 11.7598C166.897 12.6931 168.125 13.958 169.034 15.5545C169.943 17.1264 170.397 18.8948 170.397 20.8596C170.397 22.8 169.943 24.5684 169.034 26.1648C168.15 27.7613 166.934 29.0262 165.387 29.9595C163.839 30.8928 162.083 31.3595 160.118 31.3595C158.743 31.3595 157.466 31.1139 156.287 30.6227C155.561 30.2983 154.922 29.8816 154.371 29.3726V38.2857H148.845ZM159.455 26.3859C160.487 26.3859 161.395 26.1525 162.181 25.6859C162.967 25.2192 163.581 24.5684 164.023 23.7333C164.466 22.8982 164.687 21.9403 164.687 20.8596C164.687 19.779 164.466 18.8334 164.023 18.0228C163.581 17.1878 162.967 16.5369 162.181 16.0702C161.395 15.579 160.487 15.3334 159.455 15.3334C158.473 15.3334 157.588 15.5667 156.803 16.0334C156.041 16.5001 155.439 17.1509 154.997 17.986C154.58 18.8211 154.371 19.779 154.371 20.8596C154.371 21.9403 154.58 22.8982 154.997 23.7333C155.439 24.5684 156.041 25.2192 156.803 25.6859C157.588 26.1525 158.473 26.3859 159.455 26.3859Z" fill="#283841"></path>
<path d="M174.628 29.8121C176.274 30.8437 178.202 31.3595 180.412 31.3595C181.984 31.3595 183.347 31.1016 184.502 30.5858C185.656 30.0455 186.553 29.3086 187.191 28.3753C187.854 27.442 188.186 26.349 188.186 25.0964C188.186 23.6473 187.744 22.4316 186.86 21.4491C185.975 20.4421 184.698 19.693 183.028 19.2018L179.823 18.2439C179.332 18.0965 178.914 17.9369 178.57 17.765C178.251 17.593 178.018 17.3965 177.87 17.1755C177.723 16.9544 177.649 16.7088 177.649 16.4387C177.649 15.9229 177.846 15.5176 178.239 15.2229C178.656 14.9282 179.221 14.7808 179.933 14.7808C180.916 14.7808 181.788 15.0387 182.549 15.5545C183.335 16.0457 183.875 16.7088 184.17 17.5439L188.26 15.6281C187.646 13.958 186.589 12.6685 185.091 11.7598C183.618 10.8265 181.898 10.3598 179.933 10.3598C178.435 10.3598 177.109 10.63 175.955 11.1703C174.8 11.6861 173.904 12.4106 173.265 13.344C172.627 14.2773 172.307 15.3703 172.307 16.6229C172.307 18.0474 172.749 19.2877 173.634 20.3439C174.518 21.3754 175.783 22.1245 177.428 22.5912L180.854 23.5491C181.297 23.6719 181.665 23.8193 181.96 23.9912C182.254 24.1631 182.475 24.3596 182.623 24.5806C182.77 24.7771 182.844 25.0227 182.844 25.3175C182.844 25.8824 182.635 26.3245 182.218 26.6438C181.8 26.9631 181.198 27.1227 180.412 27.1227C179.332 27.1227 178.349 26.8157 177.465 26.2017C176.581 25.5876 175.881 24.7403 175.365 23.6596L171.312 25.5754C171.902 27.3438 173.007 28.756 174.628 29.8121Z" fill="#283841"></path>
<path d="M211.333 10.8019H216.491V13.2319C216.868 12.4967 217.396 11.9077 218.075 11.465C219.205 10.7282 220.556 10.3598 222.128 10.3598C223.798 10.3598 225.259 10.7896 226.512 11.6493C227.257 12.1364 227.839 12.7238 228.258 13.4115C228.79 12.6333 229.424 12.0091 230.159 11.5387C231.387 10.7528 232.824 10.3598 234.469 10.3598C235.919 10.3598 237.196 10.6791 238.301 11.3177C239.431 11.9563 240.315 12.8527 240.954 14.0071C241.592 15.1369 241.911 16.4632 241.911 17.986V30.9174H236.385V19.1649C236.385 18.379 236.238 17.7036 235.943 17.1386C235.673 16.5737 235.28 16.1316 234.764 15.8124C234.248 15.4931 233.622 15.3334 232.885 15.3334C232.173 15.3334 231.547 15.4931 231.006 15.8124C230.491 16.1316 230.085 16.5737 229.791 17.1386C229.52 17.7036 229.385 18.379 229.385 19.1649V30.9174H223.859V19.1649C223.859 18.379 223.712 17.7036 223.417 17.1386C223.147 16.5737 222.754 16.1316 222.238 15.8124C221.722 15.4931 221.096 15.3334 220.359 15.3334C219.647 15.3334 219.021 15.4931 218.48 15.8124C217.964 16.1316 217.559 16.5737 217.264 17.1386C216.994 17.7036 216.859 18.379 216.859 19.1649V30.9174H211.333V10.8019Z" fill="#283841"></path>
<path d="M197.604 31.3595C195.983 31.3595 194.596 31.0156 193.441 30.3279C192.311 29.6156 191.452 28.6332 190.862 27.3806C190.273 26.128 189.978 24.6666 189.978 22.9964V10.8019H195.504V22.5543C195.504 23.3157 195.652 23.9912 195.946 24.5806C196.266 25.1455 196.708 25.5876 197.273 25.9069C197.838 26.2262 198.476 26.3859 199.188 26.3859C199.925 26.3859 200.564 26.2262 201.104 25.9069C201.669 25.5876 202.099 25.1455 202.394 24.5806C202.713 23.9912 202.873 23.3157 202.873 22.5543V10.8019H208.399V30.9174H203.241V28.4694C202.772 29.3527 202.109 30.0336 201.252 30.5121C200.22 31.077 199.004 31.3595 197.604 31.3595Z" fill="#283841"></path>
<path fill-rule="evenodd" clip-rule="evenodd" d="M127.472 31.3595C125.482 31.3595 123.665 30.9051 122.019 29.9963C120.398 29.0876 119.097 27.8473 118.114 26.2754C117.156 24.6789 116.677 22.8736 116.677 20.8596C116.677 18.8211 117.156 17.0158 118.114 15.4439C119.097 13.872 120.398 12.6317 122.019 11.7229C123.665 10.8142 125.482 10.3598 127.472 10.3598C129.461 10.3598 131.267 10.8142 132.888 11.7229C134.509 12.6317 135.798 13.872 136.756 15.4439C137.738 17.0158 138.23 18.8211 138.23 20.8596C138.23 22.8736 137.738 24.6789 136.756 26.2754C135.798 27.8473 134.509 29.0876 132.888 29.9963C131.267 30.9051 129.461 31.3595 127.472 31.3595ZM127.472 26.3859C128.479 26.3859 129.351 26.1525 130.088 25.6859C130.849 25.2192 131.438 24.5684 131.856 23.7333C132.298 22.8982 132.519 21.9403 132.519 20.8596C132.519 19.779 132.298 18.8334 131.856 18.0228C131.438 17.1878 130.849 16.5369 130.088 16.0702C129.351 15.579 128.479 15.3334 127.472 15.3334C126.465 15.3334 125.581 15.579 124.819 16.0702C124.058 16.5369 123.456 17.1878 123.014 18.0228C122.596 18.8334 122.388 19.779 122.388 20.8596C122.388 21.9403 122.596 22.8982 123.014 23.7333C123.456 24.5684 124.058 25.2192 124.819 25.6859C125.581 26.1525 126.465 26.3859 127.472 26.3859Z" fill="#283841"></path>
<path fill-rule="evenodd" clip-rule="evenodd" d="M100.266 38.2489C101.592 38.7646 103.029 39.0225 104.577 39.0225C106.517 39.0225 108.224 38.6296 109.698 37.8436C111.196 37.0576 112.375 35.9647 113.234 34.5647C114.094 33.1893 114.524 31.6174 114.524 29.849V10.8019H109.366V12.9147C108.759 12.2026 108.071 11.6457 107.303 11.244C106.222 10.6545 104.957 10.3598 103.508 10.3598C101.666 10.3598 100.021 10.7773 98.5715 11.6124C97.1224 12.4475 95.9803 13.6019 95.1452 15.0755C94.3101 16.5246 93.8926 18.1948 93.8926 20.086C93.8926 21.9772 94.3101 23.6719 95.1452 25.1701C95.9803 26.6438 97.1346 27.8104 98.6083 28.6701C100.082 29.5051 101.752 29.9227 103.619 29.9227C105.068 29.9227 106.333 29.6525 107.413 29.1122C107.999 28.8059 108.527 28.4167 108.998 27.9445V29.849C108.998 30.7086 108.813 31.4577 108.445 32.0963C108.101 32.7349 107.598 33.2138 106.934 33.5331C106.271 33.877 105.485 34.0489 104.577 34.0489C103.422 34.0489 102.428 33.7787 101.592 33.2384C100.757 32.6981 100.205 31.9612 99.9346 31.0279L94.8136 32.8331C95.2312 34.0858 95.9066 35.1664 96.8399 36.0752C97.7978 37.0085 98.9399 37.7331 100.266 38.2489ZM106.824 24.3228C106.136 24.7157 105.326 24.9122 104.392 24.9122C103.459 24.9122 102.624 24.7157 101.887 24.3228C101.175 23.9052 100.61 23.3403 100.192 22.628C99.7995 21.9158 99.603 21.093 99.603 20.1597C99.603 19.2018 99.7995 18.3667 100.192 17.6544C100.61 16.9176 101.175 16.3527 101.887 15.9597C102.624 15.5422 103.459 15.3334 104.392 15.3334C105.301 15.3334 106.099 15.5422 106.787 15.9597C107.475 16.3527 108.015 16.9176 108.408 17.6544C108.801 18.3667 108.998 19.2018 108.998 20.1597C108.998 21.1175 108.801 21.9526 108.408 22.6649C108.04 23.3772 107.512 23.9298 106.824 24.3228Z" fill="#283841"></path>
<path fill-rule="evenodd" clip-rule="evenodd" d="M81.7951 31.3595C79.8056 31.3595 77.9881 30.9051 76.3425 29.9963C74.7215 29.0876 73.4198 27.8473 72.4373 26.2754C71.4794 24.6789 71.0005 22.8736 71.0005 20.8596C71.0005 18.8211 71.4794 17.0158 72.4373 15.4439C73.4198 13.872 74.7215 12.6317 76.3425 11.7229C77.9881 10.8142 79.8056 10.3598 81.7951 10.3598C83.7845 10.3598 85.5897 10.8142 87.2108 11.7229C88.8318 12.6317 90.1213 13.872 91.0791 15.4439C92.0616 17.0158 92.5528 18.8211 92.5528 20.8596C92.5528 22.8736 92.0616 24.6789 91.0791 26.2754C90.1213 27.8473 88.8318 29.0876 87.2108 29.9963C85.5897 30.9051 83.7845 31.3595 81.7951 31.3595ZM81.7951 26.3859C82.8021 26.3859 83.674 26.1525 84.4108 25.6859C85.1722 25.2192 85.7617 24.5684 86.1792 23.7333C86.6213 22.8982 86.8424 21.9403 86.8424 20.8596C86.8424 19.779 86.6213 18.8334 86.1792 18.0228C85.7617 17.1878 85.1722 16.5369 84.4108 16.0702C83.674 15.579 82.8021 15.3334 81.7951 15.3334C80.7881 15.3334 79.9039 15.579 79.1425 16.0702C78.3811 16.5369 77.7793 17.1878 77.3372 18.0228C76.9197 18.8334 76.7109 19.779 76.7109 20.8596C76.7109 21.9403 76.9197 22.8982 77.3372 23.7333C77.7793 24.5684 78.3811 25.2192 79.1425 25.6859C79.9039 26.1525 80.7881 26.3859 81.7951 26.3859Z" fill="#283841"></path>
<path d="M35.7361 12.4928C33.4993 8.6409 27.9073 8.6409 25.6704 12.4928L22.3481 18.214H29.0059C32.9575 18.214 35.9415 20.9906 36.695 24.3685L37.5124 22.9609C38.8436 20.6685 38.8436 17.8441 37.5124 15.5516L35.7361 12.4928Z" fill="#BB6BD9"></path>
<path d="M24.1968 35.6817C26.7309 33.3393 27.6369 29.4061 25.6718 26.022L22.3218 20.2532L29.0058 20.2533C33.4794 20.2533 36.2754 25.0681 34.0386 28.92L31.8557 32.6792C30.777 34.5367 28.7836 35.6811 26.6263 35.6814L24.1968 35.6817Z" fill="#EB5757"></path>
<path d="M8.03516 30.5862C11.3518 31.6203 15.2559 30.438 17.2294 27.0395L20.5618 21.301L23.8954 27.0416C26.1326 30.8941 23.3354 35.7096 18.8611 35.7084L14.4942 35.7073C12.3371 35.7067 10.3441 34.5623 9.2656 32.705L8.03516 30.5862Z" fill="#F2994A"></path>
<path d="M4.4286 14.1442L3.61121 15.5518C2.27999 17.8442 2.27999 20.6686 3.61121 22.961L5.3875 26.0199C7.62431 29.8718 13.2163 29.8718 15.4531 26.0199L18.7856 20.2812H12.1137C8.16902 20.2812 5.18842 17.5142 4.4286 14.1442Z" fill="#F2C94C"></path>
<path d="M7.0316 9.66181C6.87441 9.94294 6.7437 10.2289 6.63818 10.5175C6.744 10.2281 6.87514 9.94141 7.03292 9.65955L7.0316 9.66181Z" fill="#F2C94C"></path>
<path d="M16.9279 2.81018C14.3922 5.15235 13.4852 9.08685 15.4509 12.4718L18.8017 18.2422H12.1135C7.63991 18.2422 4.8439 13.4274 7.08071 9.57541L9.26552 5.81305C10.344 3.95576 12.337 2.8114 14.4941 2.81083L16.9279 2.81018Z" fill="#27AE60"></path>
<path d="M20.5667 17.2032L17.2272 11.4523C14.9902 7.6001 17.7868 2.78492 22.2608 2.78552L26.6264 2.7861C28.7837 2.78638 30.7771 3.93078 31.8558 5.78832L33.0995 7.93019C29.7805 6.88996 25.8699 8.07103 23.8941 11.4734L20.5667 17.2032Z" fill="#2F80ED"></path>
<path fill-rule="evenodd" clip-rule="evenodd" d="M26.6269 0.746469C29.517 0.746852 32.1873 2.27992 33.6323 4.76831C35.5212 8.02097 37.4 11.2793 39.2888 14.532C40.9864 17.4553 40.9864 21.0571 39.2888 23.9805C37.4066 27.2218 35.5145 30.4574 33.6323 33.6987C32.1872 36.1871 29.5169 37.7202 26.6269 37.7206C22.5817 37.7211 18.5388 37.7475 14.4939 37.7464C11.6042 37.7456 8.93436 36.2126 7.48954 33.7245C5.60372 30.4771 3.72101 27.2278 1.83522 23.9803C0.137608 21.057 0.137609 17.4552 1.83522 14.5318C3.72025 11.2857 5.6046 8.03927 7.48963 4.79315C8.93446 2.30508 11.6043 0.772064 14.494 0.7713C18.539 0.770607 22.5821 0.745932 26.6269 0.746469ZM16.928 2.81013L14.4945 2.81055C12.5692 2.81106 10.7747 3.72276 9.64438 5.2393C9.50826 5.42193 9.38176 5.61332 9.26584 5.81295L7.08103 9.57531C7.06486 9.60316 7.04895 9.63106 7.0333 9.65901C4.92755 13.4217 7.56645 18.0576 11.8567 18.2365H18.7829V18.2139H18.7858L15.4512 12.4715C13.4856 9.0867 14.3925 5.15232 16.928 2.81013ZM20.562 21.3009C21.479 22.88 22.3925 24.461 23.313 26.038L23.8957 27.0415C26.1329 30.894 23.3356 35.7095 18.8613 35.7083L14.4944 35.7071C12.3374 35.7066 10.3444 34.5622 9.26583 32.7049L8.03528 30.5858C11.2143 31.5771 14.933 30.5322 16.9741 27.4511L16.9747 27.4502C17.0629 27.317 17.148 27.18 17.2298 27.0392L20.562 21.3009ZM18.7694 20.2811L16.2696 24.586C15.9934 25.0615 15.7297 25.5439 15.4535 26.0196C13.2167 29.8715 7.62461 29.8715 5.3878 26.0196L3.61151 22.9607C2.28029 20.6683 2.28029 17.8439 3.61151 15.5515L4.42881 14.144C4.80871 15.829 5.74382 17.3633 7.07703 18.4763C8.34243 19.5327 9.96647 20.2096 11.8149 20.2758C11.9139 20.2793 12.0136 20.2811 12.114 20.2811H18.7694ZM22.3221 20.2532H29.0061C33.4797 20.2532 36.2757 25.0681 34.0389 28.92L31.856 32.6791C30.7773 34.5366 28.7839 35.681 26.6266 35.6813L24.197 35.6816C26.7311 33.3393 27.6371 29.406 25.672 26.0219L22.3221 20.2532ZM20.567 17.203L17.2274 11.4521C14.9905 7.59993 17.7871 2.78475 22.261 2.78535L26.6266 2.78593C28.784 2.78621 30.7774 3.93061 31.856 5.78815L33.0998 7.93003C29.7808 6.88979 25.8701 8.07086 23.8944 11.4732L20.567 17.203ZM25.6706 12.4928C27.9074 8.64097 33.4995 8.64097 35.7363 12.4928L37.5126 15.5517C38.8438 17.8441 38.8438 20.6685 37.5126 22.961L36.6952 24.3686C35.9417 20.9907 32.9576 18.2141 29.0061 18.2141H22.3483L25.6706 12.4928Z" fill="#283841"></path>
<path d="M14.4942 2.8106L16.9277 2.81018C14.3922 5.15237 13.4852 9.08675 15.4508 12.4717L18.7855 18.2141H18.7826V18.2367H16.5444L13.7603 13.4423C11.6679 9.83905 12.1907 5.74365 14.3306 2.81284C14.385 2.81136 14.4395 2.81062 14.4942 2.8106Z" fill="black" fill-opacity="0.22"></path>
<path d="M4.42874 14.1442C4.80865 15.8292 5.74379 17.3635 7.07699 18.4765C8.34239 19.5329 9.96643 20.2098 11.8148 20.2759C11.9139 20.2795 12.0136 20.2813 12.1139 20.2813H18.7694L17.6423 22.2222H12.1139C7.94953 22.2222 4.65556 19.7487 3.16211 16.4646C3.28967 16.1529 3.43946 15.8478 3.61147 15.5516L4.42874 14.1442Z" fill="black" fill-opacity="0.22"></path>
<path d="M8.03516 30.5861C11.2141 31.5772 14.9328 30.5322 16.9739 27.4512L16.9745 27.4503C17.0627 27.3171 17.1478 27.1801 17.2295 27.0393L20.5618 21.301C20.8644 21.8222 21.1667 22.3436 21.469 22.865C21.5421 22.9911 21.6152 23.1171 21.6882 23.2431L18.9201 28.0099C16.8208 31.6251 12.9738 33.2212 9.34004 32.8297C9.31476 32.7885 9.28994 32.7469 9.26558 32.705L8.03516 30.5861Z" fill="black" fill-opacity="0.22"></path>
<path d="M26.7935 35.679C26.7379 35.6806 26.6821 35.6814 26.6262 35.6814L24.1966 35.6817C26.7307 33.3393 27.6368 29.406 25.6717 26.0219L22.3218 20.2533L24.5759 20.2532L27.3624 25.0516C29.4543 28.654 28.9321 32.7484 26.7935 35.679Z" fill="black" fill-opacity="0.22"></path>
<path d="M37.9635 22.0437C37.8356 22.3569 37.6852 22.6635 37.5123 22.9611L36.6949 24.3687C35.9415 20.9908 32.9574 18.2142 29.0059 18.2142H22.3481L23.4752 16.2733H29.0059C33.1757 16.2733 36.4728 18.7531 37.9635 22.0437Z" fill="black" fill-opacity="0.22"></path>
<path d="M31.7938 5.68418C31.8147 5.7186 31.8353 5.75327 31.8556 5.7882L33.0994 7.93008C29.7803 6.88985 25.8697 8.07091 23.8939 11.4733L20.5666 17.2032L19.4395 15.2623L22.2033 10.5029C24.3046 6.88419 28.157 5.28849 31.7938 5.68418Z" fill="black" fill-opacity="0.22"></path>
</svg>